%TF.GenerationSoftware,KiCad,Pcbnew,5.1.8-db9833491~88~ubuntu18.04.1*%
%TF.CreationDate,2020-11-25T20:35:17-08:00*%
%TF.ProjectId,xmas_ornament_2020,786d6173-5f6f-4726-9e61-6d656e745f32,rev?*%
%TF.SameCoordinates,Original*%
%TF.FileFunction,Copper,L1,Top*%
%TF.FilePolarity,Positive*%
%FSLAX46Y46*%
G04 Gerber Fmt 4.6, Leading zero omitted, Abs format (unit mm)*
G04 Created by KiCad (PCBNEW 5.1.8-db9833491~88~ubuntu18.04.1) date 2020-11-25 20:35:17*
%MOMM*%
%LPD*%
G01*
G04 APERTURE LIST*
%TA.AperFunction,SMDPad,CuDef*%
%ADD10R,1.500000X1.300000*%
%TD*%
%TA.AperFunction,SMDPad,CuDef*%
%ADD11R,1.300000X1.500000*%
%TD*%
%TA.AperFunction,ViaPad*%
%ADD12C,0.600000*%
%TD*%
%TA.AperFunction,Conductor*%
%ADD13C,0.250000*%
%TD*%
G04 APERTURE END LIST*
D10*
%TO.P,D1,1*%
%TO.N,Net-(D1-Pad1)*%
X108886000Y-103632000D03*
%TO.P,D1,2*%
%TO.N,+3V3*%
X111586000Y-103632000D03*
%TD*%
%TO.P,D2,1*%
%TO.N,Net-(D1-Pad1)*%
X77390000Y-86360000D03*
%TO.P,D2,2*%
%TO.N,+3V3*%
X80090000Y-86360000D03*
%TD*%
%TO.P,D3,1*%
%TO.N,Net-(D1-Pad1)*%
X92630000Y-72644000D03*
%TO.P,D3,2*%
%TO.N,+3V3*%
X95330000Y-72644000D03*
%TD*%
%TO.P,D4,1*%
%TO.N,Net-(D1-Pad1)*%
X63166000Y-117856000D03*
%TO.P,D4,2*%
%TO.N,+3V3*%
X65866000Y-117856000D03*
%TD*%
%TO.P,D5,1*%
%TO.N,Net-(D1-Pad1)*%
X86534000Y-100076000D03*
%TO.P,D5,2*%
%TO.N,+3V3*%
X89234000Y-100076000D03*
%TD*%
%TO.P,D6,1*%
%TO.N,Net-(D10-Pad1)*%
X80946000Y-69596000D03*
%TO.P,D6,2*%
%TO.N,+3V3*%
X83646000Y-69596000D03*
%TD*%
%TO.P,D7,1*%
%TO.N,Net-(D10-Pad1)*%
X100758000Y-87376000D03*
%TO.P,D7,2*%
%TO.N,+3V3*%
X103458000Y-87376000D03*
%TD*%
%TO.P,D8,1*%
%TO.N,Net-(D10-Pad1)*%
X89074000Y-112776000D03*
%TO.P,D8,2*%
%TO.N,+3V3*%
X91774000Y-112776000D03*
%TD*%
%TO.P,D9,1*%
%TO.N,Net-(D10-Pad1)*%
X112442000Y-118872000D03*
%TO.P,D9,2*%
%TO.N,+3V3*%
X115142000Y-118872000D03*
%TD*%
%TO.P,D10,1*%
%TO.N,Net-(D10-Pad1)*%
X68754000Y-98044000D03*
%TO.P,D10,2*%
%TO.N,+3V3*%
X71454000Y-98044000D03*
%TD*%
D11*
%TO.P,D11,1*%
%TO.N,Net-(D11-Pad1)*%
X88900000Y-58246000D03*
%TO.P,D11,2*%
%TO.N,Net-(D11-Pad2)*%
X88900000Y-55546000D03*
%TD*%
D12*
%TO.N,GND*%
X101600000Y-99568000D03*
X93980000Y-100076000D03*
X91440000Y-97536000D03*
X96520000Y-111252000D03*
%TO.N,Net-(D1-Pad1)*%
X102616000Y-93980000D03*
X108712000Y-98552000D03*
X86360000Y-93980000D03*
X82804000Y-97028000D03*
%TO.N,+3V3*%
X89408000Y-136144000D03*
X104648000Y-105156000D03*
%TO.N,Net-(D10-Pad1)*%
X103241001Y-109671001D03*
X88900000Y-110236000D03*
X64008000Y-104140000D03*
X94996000Y-81788000D03*
X80772000Y-74168000D03*
%TO.N,Net-(D11-Pad1)*%
X84836000Y-60452000D03*
%TO.N,Net-(D11-Pad2)*%
X93980000Y-59436000D03*
%TO.N,Net-(U1-Pad2)*%
X98044000Y-102108000D03*
X97536000Y-90932000D03*
%TD*%
D13*
%TO.N,GND*%
X98434999Y-102733001D02*
X96637001Y-102733001D01*
X96637001Y-102733001D02*
X93980000Y-100076000D01*
X93472000Y-99568000D02*
X91440000Y-97536000D01*
X93980000Y-100076000D02*
X93472000Y-99568000D01*
X91440000Y-97536000D02*
X91440000Y-97536000D01*
X101600000Y-99568000D02*
X98552000Y-102616000D01*
X96520000Y-104648000D02*
X98552000Y-102616000D01*
X96520000Y-111252000D02*
X96520000Y-104648000D01*
X98552000Y-102616000D02*
X98434999Y-102733001D01*
%TO.N,Net-(D1-Pad1)*%
X102616000Y-91219002D02*
X102616000Y-93980000D01*
X92630000Y-72644000D02*
X92630000Y-81233002D01*
X79786499Y-83963501D02*
X95360499Y-83963501D01*
X77390000Y-86360000D02*
X79786499Y-83963501D01*
X92630000Y-81233002D02*
X95360499Y-83963501D01*
X95360499Y-83963501D02*
X102616000Y-91219002D01*
X108712000Y-103458000D02*
X108886000Y-103632000D01*
X108712000Y-98552000D02*
X108712000Y-103458000D01*
X67778999Y-118831001D02*
X86534000Y-100076000D01*
X64141001Y-118831001D02*
X67778999Y-118831001D01*
X63166000Y-117856000D02*
X64141001Y-118831001D01*
X98942999Y-90306999D02*
X90033001Y-90306999D01*
X102616000Y-93980000D02*
X98942999Y-90306999D01*
X90033001Y-90306999D02*
X86360000Y-93980000D01*
X86360000Y-93980000D02*
X86360000Y-93980000D01*
X83486000Y-97028000D02*
X86534000Y-100076000D01*
X82804000Y-97028000D02*
X83486000Y-97028000D01*
%TO.N,+3V3*%
X92282000Y-69596000D02*
X95330000Y-72644000D01*
X83646000Y-69596000D02*
X92282000Y-69596000D01*
X95330000Y-79248000D02*
X103458000Y-87376000D01*
X95330000Y-72644000D02*
X95330000Y-79248000D01*
X111586000Y-115316000D02*
X115142000Y-118872000D01*
X91774000Y-102616000D02*
X89234000Y-100076000D01*
X91774000Y-112776000D02*
X91774000Y-102616000D01*
X89408000Y-115142000D02*
X91774000Y-112776000D01*
X89408000Y-136144000D02*
X89408000Y-115142000D01*
X65866000Y-103632000D02*
X71454000Y-98044000D01*
X65866000Y-117856000D02*
X65866000Y-103632000D01*
X71454000Y-94996000D02*
X80090000Y-86360000D01*
X71454000Y-98044000D02*
X71454000Y-94996000D01*
X80090000Y-90932000D02*
X89234000Y-100076000D01*
X80090000Y-86360000D02*
X80090000Y-90932000D01*
X111586000Y-95504000D02*
X111586000Y-103632000D01*
X103458000Y-87376000D02*
X111586000Y-95504000D01*
X115142000Y-119772000D02*
X111470000Y-123444000D01*
X115142000Y-118872000D02*
X115142000Y-119772000D01*
X111470000Y-123444000D02*
X102616000Y-123444000D01*
X91948000Y-112776000D02*
X91774000Y-112776000D01*
X102616000Y-123444000D02*
X91948000Y-112776000D01*
X111586000Y-103632000D02*
X111586000Y-104822000D01*
X111586000Y-113966000D02*
X111586000Y-112094000D01*
X111586000Y-113966000D02*
X111586000Y-115316000D01*
X111586000Y-103632000D02*
X111586000Y-113966000D01*
X111586000Y-112094000D02*
X104648000Y-105156000D01*
X104648000Y-105156000D02*
X104648000Y-105156000D01*
%TO.N,Net-(D10-Pad1)*%
X103241001Y-109671001D02*
X103241001Y-109671001D01*
X100758000Y-87376000D02*
X103241001Y-89859001D01*
X103241001Y-89859001D02*
X103241001Y-109671001D01*
X103241001Y-109671001D02*
X112442000Y-118872000D01*
X88900000Y-112602000D02*
X89074000Y-112776000D01*
X88900000Y-110236000D02*
X88900000Y-112602000D01*
X64008000Y-102790000D02*
X68754000Y-98044000D01*
X64008000Y-104140000D02*
X64008000Y-102790000D01*
X100758000Y-87376000D02*
X100584000Y-87376000D01*
X100584000Y-87376000D02*
X94996000Y-81788000D01*
X94996000Y-81788000D02*
X94996000Y-81788000D01*
X80772000Y-69770000D02*
X80946000Y-69596000D01*
X80772000Y-74168000D02*
X80772000Y-69770000D01*
%TO.N,Net-(D11-Pad1)*%
X86694000Y-60452000D02*
X88900000Y-58246000D01*
X84836000Y-60452000D02*
X86694000Y-60452000D01*
%TO.N,Net-(D11-Pad2)*%
X88900000Y-55546000D02*
X90090000Y-55546000D01*
X90090000Y-55546000D02*
X93980000Y-59436000D01*
X93980000Y-59436000D02*
X93980000Y-59436000D01*
%TO.N,Net-(U1-Pad2)*%
X98044000Y-102108000D02*
X98044000Y-91440000D01*
X98044000Y-91440000D02*
X97536000Y-90932000D01*
X97536000Y-90932000D02*
X97536000Y-90932000D01*
%TD*%
M02*
