%TF.GenerationSoftware,KiCad,Pcbnew,5.1.8-db9833491~88~ubuntu18.04.1*%
%TF.CreationDate,2020-11-25T20:35:17-08:00*%
%TF.ProjectId,xmas_ornament_2020,786d6173-5f6f-4726-9e61-6d656e745f32,rev?*%
%TF.SameCoordinates,Original*%
%TF.FileFunction,Soldermask,Top*%
%TF.FilePolarity,Negative*%
%FSLAX46Y46*%
G04 Gerber Fmt 4.6, Leading zero omitted, Abs format (unit mm)*
G04 Created by KiCad (PCBNEW 5.1.8-db9833491~88~ubuntu18.04.1) date 2020-11-25 20:35:17*
%MOMM*%
%LPD*%
G01*
G04 APERTURE LIST*
G04 APERTURE END LIST*
%TO.C,D1*%
G36*
G01*
X107936000Y-104282000D02*
X107936000Y-102982000D01*
G75*
G02*
X108136000Y-102782000I200000J0D01*
G01*
X109636000Y-102782000D01*
G75*
G02*
X109836000Y-102982000I0J-200000D01*
G01*
X109836000Y-104282000D01*
G75*
G02*
X109636000Y-104482000I-200000J0D01*
G01*
X108136000Y-104482000D01*
G75*
G02*
X107936000Y-104282000I0J200000D01*
G01*
G37*
G36*
G01*
X110636000Y-104282000D02*
X110636000Y-102982000D01*
G75*
G02*
X110836000Y-102782000I200000J0D01*
G01*
X112336000Y-102782000D01*
G75*
G02*
X112536000Y-102982000I0J-200000D01*
G01*
X112536000Y-104282000D01*
G75*
G02*
X112336000Y-104482000I-200000J0D01*
G01*
X110836000Y-104482000D01*
G75*
G02*
X110636000Y-104282000I0J200000D01*
G01*
G37*
%TD*%
%TO.C,D2*%
G36*
G01*
X76440000Y-87010000D02*
X76440000Y-85710000D01*
G75*
G02*
X76640000Y-85510000I200000J0D01*
G01*
X78140000Y-85510000D01*
G75*
G02*
X78340000Y-85710000I0J-200000D01*
G01*
X78340000Y-87010000D01*
G75*
G02*
X78140000Y-87210000I-200000J0D01*
G01*
X76640000Y-87210000D01*
G75*
G02*
X76440000Y-87010000I0J200000D01*
G01*
G37*
G36*
G01*
X79140000Y-87010000D02*
X79140000Y-85710000D01*
G75*
G02*
X79340000Y-85510000I200000J0D01*
G01*
X80840000Y-85510000D01*
G75*
G02*
X81040000Y-85710000I0J-200000D01*
G01*
X81040000Y-87010000D01*
G75*
G02*
X80840000Y-87210000I-200000J0D01*
G01*
X79340000Y-87210000D01*
G75*
G02*
X79140000Y-87010000I0J200000D01*
G01*
G37*
%TD*%
%TO.C,D3*%
G36*
G01*
X91680000Y-73294000D02*
X91680000Y-71994000D01*
G75*
G02*
X91880000Y-71794000I200000J0D01*
G01*
X93380000Y-71794000D01*
G75*
G02*
X93580000Y-71994000I0J-200000D01*
G01*
X93580000Y-73294000D01*
G75*
G02*
X93380000Y-73494000I-200000J0D01*
G01*
X91880000Y-73494000D01*
G75*
G02*
X91680000Y-73294000I0J200000D01*
G01*
G37*
G36*
G01*
X94380000Y-73294000D02*
X94380000Y-71994000D01*
G75*
G02*
X94580000Y-71794000I200000J0D01*
G01*
X96080000Y-71794000D01*
G75*
G02*
X96280000Y-71994000I0J-200000D01*
G01*
X96280000Y-73294000D01*
G75*
G02*
X96080000Y-73494000I-200000J0D01*
G01*
X94580000Y-73494000D01*
G75*
G02*
X94380000Y-73294000I0J200000D01*
G01*
G37*
%TD*%
%TO.C,D4*%
G36*
G01*
X62216000Y-118506000D02*
X62216000Y-117206000D01*
G75*
G02*
X62416000Y-117006000I200000J0D01*
G01*
X63916000Y-117006000D01*
G75*
G02*
X64116000Y-117206000I0J-200000D01*
G01*
X64116000Y-118506000D01*
G75*
G02*
X63916000Y-118706000I-200000J0D01*
G01*
X62416000Y-118706000D01*
G75*
G02*
X62216000Y-118506000I0J200000D01*
G01*
G37*
G36*
G01*
X64916000Y-118506000D02*
X64916000Y-117206000D01*
G75*
G02*
X65116000Y-117006000I200000J0D01*
G01*
X66616000Y-117006000D01*
G75*
G02*
X66816000Y-117206000I0J-200000D01*
G01*
X66816000Y-118506000D01*
G75*
G02*
X66616000Y-118706000I-200000J0D01*
G01*
X65116000Y-118706000D01*
G75*
G02*
X64916000Y-118506000I0J200000D01*
G01*
G37*
%TD*%
%TO.C,D5*%
G36*
G01*
X85584000Y-100726000D02*
X85584000Y-99426000D01*
G75*
G02*
X85784000Y-99226000I200000J0D01*
G01*
X87284000Y-99226000D01*
G75*
G02*
X87484000Y-99426000I0J-200000D01*
G01*
X87484000Y-100726000D01*
G75*
G02*
X87284000Y-100926000I-200000J0D01*
G01*
X85784000Y-100926000D01*
G75*
G02*
X85584000Y-100726000I0J200000D01*
G01*
G37*
G36*
G01*
X88284000Y-100726000D02*
X88284000Y-99426000D01*
G75*
G02*
X88484000Y-99226000I200000J0D01*
G01*
X89984000Y-99226000D01*
G75*
G02*
X90184000Y-99426000I0J-200000D01*
G01*
X90184000Y-100726000D01*
G75*
G02*
X89984000Y-100926000I-200000J0D01*
G01*
X88484000Y-100926000D01*
G75*
G02*
X88284000Y-100726000I0J200000D01*
G01*
G37*
%TD*%
%TO.C,D6*%
G36*
G01*
X79996000Y-70246000D02*
X79996000Y-68946000D01*
G75*
G02*
X80196000Y-68746000I200000J0D01*
G01*
X81696000Y-68746000D01*
G75*
G02*
X81896000Y-68946000I0J-200000D01*
G01*
X81896000Y-70246000D01*
G75*
G02*
X81696000Y-70446000I-200000J0D01*
G01*
X80196000Y-70446000D01*
G75*
G02*
X79996000Y-70246000I0J200000D01*
G01*
G37*
G36*
G01*
X82696000Y-70246000D02*
X82696000Y-68946000D01*
G75*
G02*
X82896000Y-68746000I200000J0D01*
G01*
X84396000Y-68746000D01*
G75*
G02*
X84596000Y-68946000I0J-200000D01*
G01*
X84596000Y-70246000D01*
G75*
G02*
X84396000Y-70446000I-200000J0D01*
G01*
X82896000Y-70446000D01*
G75*
G02*
X82696000Y-70246000I0J200000D01*
G01*
G37*
%TD*%
%TO.C,D7*%
G36*
G01*
X99808000Y-88026000D02*
X99808000Y-86726000D01*
G75*
G02*
X100008000Y-86526000I200000J0D01*
G01*
X101508000Y-86526000D01*
G75*
G02*
X101708000Y-86726000I0J-200000D01*
G01*
X101708000Y-88026000D01*
G75*
G02*
X101508000Y-88226000I-200000J0D01*
G01*
X100008000Y-88226000D01*
G75*
G02*
X99808000Y-88026000I0J200000D01*
G01*
G37*
G36*
G01*
X102508000Y-88026000D02*
X102508000Y-86726000D01*
G75*
G02*
X102708000Y-86526000I200000J0D01*
G01*
X104208000Y-86526000D01*
G75*
G02*
X104408000Y-86726000I0J-200000D01*
G01*
X104408000Y-88026000D01*
G75*
G02*
X104208000Y-88226000I-200000J0D01*
G01*
X102708000Y-88226000D01*
G75*
G02*
X102508000Y-88026000I0J200000D01*
G01*
G37*
%TD*%
%TO.C,D8*%
G36*
G01*
X88124000Y-113426000D02*
X88124000Y-112126000D01*
G75*
G02*
X88324000Y-111926000I200000J0D01*
G01*
X89824000Y-111926000D01*
G75*
G02*
X90024000Y-112126000I0J-200000D01*
G01*
X90024000Y-113426000D01*
G75*
G02*
X89824000Y-113626000I-200000J0D01*
G01*
X88324000Y-113626000D01*
G75*
G02*
X88124000Y-113426000I0J200000D01*
G01*
G37*
G36*
G01*
X90824000Y-113426000D02*
X90824000Y-112126000D01*
G75*
G02*
X91024000Y-111926000I200000J0D01*
G01*
X92524000Y-111926000D01*
G75*
G02*
X92724000Y-112126000I0J-200000D01*
G01*
X92724000Y-113426000D01*
G75*
G02*
X92524000Y-113626000I-200000J0D01*
G01*
X91024000Y-113626000D01*
G75*
G02*
X90824000Y-113426000I0J200000D01*
G01*
G37*
%TD*%
%TO.C,D9*%
G36*
G01*
X111492000Y-119522000D02*
X111492000Y-118222000D01*
G75*
G02*
X111692000Y-118022000I200000J0D01*
G01*
X113192000Y-118022000D01*
G75*
G02*
X113392000Y-118222000I0J-200000D01*
G01*
X113392000Y-119522000D01*
G75*
G02*
X113192000Y-119722000I-200000J0D01*
G01*
X111692000Y-119722000D01*
G75*
G02*
X111492000Y-119522000I0J200000D01*
G01*
G37*
G36*
G01*
X114192000Y-119522000D02*
X114192000Y-118222000D01*
G75*
G02*
X114392000Y-118022000I200000J0D01*
G01*
X115892000Y-118022000D01*
G75*
G02*
X116092000Y-118222000I0J-200000D01*
G01*
X116092000Y-119522000D01*
G75*
G02*
X115892000Y-119722000I-200000J0D01*
G01*
X114392000Y-119722000D01*
G75*
G02*
X114192000Y-119522000I0J200000D01*
G01*
G37*
%TD*%
%TO.C,D10*%
G36*
G01*
X67804000Y-98694000D02*
X67804000Y-97394000D01*
G75*
G02*
X68004000Y-97194000I200000J0D01*
G01*
X69504000Y-97194000D01*
G75*
G02*
X69704000Y-97394000I0J-200000D01*
G01*
X69704000Y-98694000D01*
G75*
G02*
X69504000Y-98894000I-200000J0D01*
G01*
X68004000Y-98894000D01*
G75*
G02*
X67804000Y-98694000I0J200000D01*
G01*
G37*
G36*
G01*
X70504000Y-98694000D02*
X70504000Y-97394000D01*
G75*
G02*
X70704000Y-97194000I200000J0D01*
G01*
X72204000Y-97194000D01*
G75*
G02*
X72404000Y-97394000I0J-200000D01*
G01*
X72404000Y-98694000D01*
G75*
G02*
X72204000Y-98894000I-200000J0D01*
G01*
X70704000Y-98894000D01*
G75*
G02*
X70504000Y-98694000I0J200000D01*
G01*
G37*
%TD*%
%TO.C,D11*%
G36*
G01*
X89550000Y-59196000D02*
X88250000Y-59196000D01*
G75*
G02*
X88050000Y-58996000I0J200000D01*
G01*
X88050000Y-57496000D01*
G75*
G02*
X88250000Y-57296000I200000J0D01*
G01*
X89550000Y-57296000D01*
G75*
G02*
X89750000Y-57496000I0J-200000D01*
G01*
X89750000Y-58996000D01*
G75*
G02*
X89550000Y-59196000I-200000J0D01*
G01*
G37*
G36*
G01*
X89550000Y-56496000D02*
X88250000Y-56496000D01*
G75*
G02*
X88050000Y-56296000I0J200000D01*
G01*
X88050000Y-54796000D01*
G75*
G02*
X88250000Y-54596000I200000J0D01*
G01*
X89550000Y-54596000D01*
G75*
G02*
X89750000Y-54796000I0J-200000D01*
G01*
X89750000Y-56296000D01*
G75*
G02*
X89550000Y-56496000I-200000J0D01*
G01*
G37*
%TD*%
M02*
