%TF.GenerationSoftware,KiCad,Pcbnew,5.1.8-db9833491~88~ubuntu18.04.1*%
%TF.CreationDate,2020-11-25T20:35:17-08:00*%
%TF.ProjectId,xmas_ornament_2020,786d6173-5f6f-4726-9e61-6d656e745f32,rev?*%
%TF.SameCoordinates,Original*%
%TF.FileFunction,Legend,Top*%
%TF.FilePolarity,Positive*%
%FSLAX46Y46*%
G04 Gerber Fmt 4.6, Leading zero omitted, Abs format (unit mm)*
G04 Created by KiCad (PCBNEW 5.1.8-db9833491~88~ubuntu18.04.1) date 2020-11-25 20:35:17*
%MOMM*%
%LPD*%
G01*
G04 APERTURE LIST*
%ADD10C,0.120000*%
%ADD11C,0.150000*%
G04 APERTURE END LIST*
D10*
%TO.C,D1*%
X111236000Y-104382000D02*
X108036000Y-104382000D01*
X108036000Y-102882000D02*
X111236000Y-102882000D01*
X108036000Y-102882000D02*
X108036000Y-104382000D01*
%TO.C,D2*%
X79740000Y-87110000D02*
X76540000Y-87110000D01*
X76540000Y-85610000D02*
X79740000Y-85610000D01*
X76540000Y-85610000D02*
X76540000Y-87110000D01*
%TO.C,D3*%
X94980000Y-73394000D02*
X91780000Y-73394000D01*
X91780000Y-71894000D02*
X94980000Y-71894000D01*
X91780000Y-71894000D02*
X91780000Y-73394000D01*
%TO.C,D4*%
X65516000Y-118606000D02*
X62316000Y-118606000D01*
X62316000Y-117106000D02*
X65516000Y-117106000D01*
X62316000Y-117106000D02*
X62316000Y-118606000D01*
%TO.C,D5*%
X88884000Y-100826000D02*
X85684000Y-100826000D01*
X85684000Y-99326000D02*
X88884000Y-99326000D01*
X85684000Y-99326000D02*
X85684000Y-100826000D01*
%TO.C,D6*%
X83296000Y-70346000D02*
X80096000Y-70346000D01*
X80096000Y-68846000D02*
X83296000Y-68846000D01*
X80096000Y-68846000D02*
X80096000Y-70346000D01*
%TO.C,D7*%
X103108000Y-88126000D02*
X99908000Y-88126000D01*
X99908000Y-86626000D02*
X103108000Y-86626000D01*
X99908000Y-86626000D02*
X99908000Y-88126000D01*
%TO.C,D8*%
X91424000Y-113526000D02*
X88224000Y-113526000D01*
X88224000Y-112026000D02*
X91424000Y-112026000D01*
X88224000Y-112026000D02*
X88224000Y-113526000D01*
%TO.C,D9*%
X114792000Y-119622000D02*
X111592000Y-119622000D01*
X111592000Y-118122000D02*
X114792000Y-118122000D01*
X111592000Y-118122000D02*
X111592000Y-119622000D01*
%TO.C,D10*%
X71104000Y-98794000D02*
X67904000Y-98794000D01*
X67904000Y-97294000D02*
X71104000Y-97294000D01*
X67904000Y-97294000D02*
X67904000Y-98794000D01*
%TO.C,D11*%
X89650000Y-55896000D02*
X89650000Y-59096000D01*
X88150000Y-59096000D02*
X88150000Y-55896000D01*
X88150000Y-59096000D02*
X89650000Y-59096000D01*
%TO.C,D1*%
D11*
X109497904Y-102384380D02*
X109497904Y-101384380D01*
X109736000Y-101384380D01*
X109878857Y-101432000D01*
X109974095Y-101527238D01*
X110021714Y-101622476D01*
X110069333Y-101812952D01*
X110069333Y-101955809D01*
X110021714Y-102146285D01*
X109974095Y-102241523D01*
X109878857Y-102336761D01*
X109736000Y-102384380D01*
X109497904Y-102384380D01*
X111021714Y-102384380D02*
X110450285Y-102384380D01*
X110736000Y-102384380D02*
X110736000Y-101384380D01*
X110640761Y-101527238D01*
X110545523Y-101622476D01*
X110450285Y-101670095D01*
%TO.C,D2*%
X78001904Y-85112380D02*
X78001904Y-84112380D01*
X78240000Y-84112380D01*
X78382857Y-84160000D01*
X78478095Y-84255238D01*
X78525714Y-84350476D01*
X78573333Y-84540952D01*
X78573333Y-84683809D01*
X78525714Y-84874285D01*
X78478095Y-84969523D01*
X78382857Y-85064761D01*
X78240000Y-85112380D01*
X78001904Y-85112380D01*
X78954285Y-84207619D02*
X79001904Y-84160000D01*
X79097142Y-84112380D01*
X79335238Y-84112380D01*
X79430476Y-84160000D01*
X79478095Y-84207619D01*
X79525714Y-84302857D01*
X79525714Y-84398095D01*
X79478095Y-84540952D01*
X78906666Y-85112380D01*
X79525714Y-85112380D01*
%TO.C,D3*%
X93241904Y-71396380D02*
X93241904Y-70396380D01*
X93480000Y-70396380D01*
X93622857Y-70444000D01*
X93718095Y-70539238D01*
X93765714Y-70634476D01*
X93813333Y-70824952D01*
X93813333Y-70967809D01*
X93765714Y-71158285D01*
X93718095Y-71253523D01*
X93622857Y-71348761D01*
X93480000Y-71396380D01*
X93241904Y-71396380D01*
X94146666Y-70396380D02*
X94765714Y-70396380D01*
X94432380Y-70777333D01*
X94575238Y-70777333D01*
X94670476Y-70824952D01*
X94718095Y-70872571D01*
X94765714Y-70967809D01*
X94765714Y-71205904D01*
X94718095Y-71301142D01*
X94670476Y-71348761D01*
X94575238Y-71396380D01*
X94289523Y-71396380D01*
X94194285Y-71348761D01*
X94146666Y-71301142D01*
%TO.C,D4*%
X63777904Y-116608380D02*
X63777904Y-115608380D01*
X64016000Y-115608380D01*
X64158857Y-115656000D01*
X64254095Y-115751238D01*
X64301714Y-115846476D01*
X64349333Y-116036952D01*
X64349333Y-116179809D01*
X64301714Y-116370285D01*
X64254095Y-116465523D01*
X64158857Y-116560761D01*
X64016000Y-116608380D01*
X63777904Y-116608380D01*
X65206476Y-115941714D02*
X65206476Y-116608380D01*
X64968380Y-115560761D02*
X64730285Y-116275047D01*
X65349333Y-116275047D01*
%TO.C,D5*%
X87145904Y-98828380D02*
X87145904Y-97828380D01*
X87384000Y-97828380D01*
X87526857Y-97876000D01*
X87622095Y-97971238D01*
X87669714Y-98066476D01*
X87717333Y-98256952D01*
X87717333Y-98399809D01*
X87669714Y-98590285D01*
X87622095Y-98685523D01*
X87526857Y-98780761D01*
X87384000Y-98828380D01*
X87145904Y-98828380D01*
X88622095Y-97828380D02*
X88145904Y-97828380D01*
X88098285Y-98304571D01*
X88145904Y-98256952D01*
X88241142Y-98209333D01*
X88479238Y-98209333D01*
X88574476Y-98256952D01*
X88622095Y-98304571D01*
X88669714Y-98399809D01*
X88669714Y-98637904D01*
X88622095Y-98733142D01*
X88574476Y-98780761D01*
X88479238Y-98828380D01*
X88241142Y-98828380D01*
X88145904Y-98780761D01*
X88098285Y-98733142D01*
%TO.C,D6*%
X81557904Y-68348380D02*
X81557904Y-67348380D01*
X81796000Y-67348380D01*
X81938857Y-67396000D01*
X82034095Y-67491238D01*
X82081714Y-67586476D01*
X82129333Y-67776952D01*
X82129333Y-67919809D01*
X82081714Y-68110285D01*
X82034095Y-68205523D01*
X81938857Y-68300761D01*
X81796000Y-68348380D01*
X81557904Y-68348380D01*
X82986476Y-67348380D02*
X82796000Y-67348380D01*
X82700761Y-67396000D01*
X82653142Y-67443619D01*
X82557904Y-67586476D01*
X82510285Y-67776952D01*
X82510285Y-68157904D01*
X82557904Y-68253142D01*
X82605523Y-68300761D01*
X82700761Y-68348380D01*
X82891238Y-68348380D01*
X82986476Y-68300761D01*
X83034095Y-68253142D01*
X83081714Y-68157904D01*
X83081714Y-67919809D01*
X83034095Y-67824571D01*
X82986476Y-67776952D01*
X82891238Y-67729333D01*
X82700761Y-67729333D01*
X82605523Y-67776952D01*
X82557904Y-67824571D01*
X82510285Y-67919809D01*
%TO.C,D7*%
X101369904Y-86128380D02*
X101369904Y-85128380D01*
X101608000Y-85128380D01*
X101750857Y-85176000D01*
X101846095Y-85271238D01*
X101893714Y-85366476D01*
X101941333Y-85556952D01*
X101941333Y-85699809D01*
X101893714Y-85890285D01*
X101846095Y-85985523D01*
X101750857Y-86080761D01*
X101608000Y-86128380D01*
X101369904Y-86128380D01*
X102274666Y-85128380D02*
X102941333Y-85128380D01*
X102512761Y-86128380D01*
%TO.C,D8*%
X89685904Y-111528380D02*
X89685904Y-110528380D01*
X89924000Y-110528380D01*
X90066857Y-110576000D01*
X90162095Y-110671238D01*
X90209714Y-110766476D01*
X90257333Y-110956952D01*
X90257333Y-111099809D01*
X90209714Y-111290285D01*
X90162095Y-111385523D01*
X90066857Y-111480761D01*
X89924000Y-111528380D01*
X89685904Y-111528380D01*
X90828761Y-110956952D02*
X90733523Y-110909333D01*
X90685904Y-110861714D01*
X90638285Y-110766476D01*
X90638285Y-110718857D01*
X90685904Y-110623619D01*
X90733523Y-110576000D01*
X90828761Y-110528380D01*
X91019238Y-110528380D01*
X91114476Y-110576000D01*
X91162095Y-110623619D01*
X91209714Y-110718857D01*
X91209714Y-110766476D01*
X91162095Y-110861714D01*
X91114476Y-110909333D01*
X91019238Y-110956952D01*
X90828761Y-110956952D01*
X90733523Y-111004571D01*
X90685904Y-111052190D01*
X90638285Y-111147428D01*
X90638285Y-111337904D01*
X90685904Y-111433142D01*
X90733523Y-111480761D01*
X90828761Y-111528380D01*
X91019238Y-111528380D01*
X91114476Y-111480761D01*
X91162095Y-111433142D01*
X91209714Y-111337904D01*
X91209714Y-111147428D01*
X91162095Y-111052190D01*
X91114476Y-111004571D01*
X91019238Y-110956952D01*
%TO.C,D9*%
X113053904Y-117624380D02*
X113053904Y-116624380D01*
X113292000Y-116624380D01*
X113434857Y-116672000D01*
X113530095Y-116767238D01*
X113577714Y-116862476D01*
X113625333Y-117052952D01*
X113625333Y-117195809D01*
X113577714Y-117386285D01*
X113530095Y-117481523D01*
X113434857Y-117576761D01*
X113292000Y-117624380D01*
X113053904Y-117624380D01*
X114101523Y-117624380D02*
X114292000Y-117624380D01*
X114387238Y-117576761D01*
X114434857Y-117529142D01*
X114530095Y-117386285D01*
X114577714Y-117195809D01*
X114577714Y-116814857D01*
X114530095Y-116719619D01*
X114482476Y-116672000D01*
X114387238Y-116624380D01*
X114196761Y-116624380D01*
X114101523Y-116672000D01*
X114053904Y-116719619D01*
X114006285Y-116814857D01*
X114006285Y-117052952D01*
X114053904Y-117148190D01*
X114101523Y-117195809D01*
X114196761Y-117243428D01*
X114387238Y-117243428D01*
X114482476Y-117195809D01*
X114530095Y-117148190D01*
X114577714Y-117052952D01*
%TO.C,D10*%
X68889714Y-96796380D02*
X68889714Y-95796380D01*
X69127809Y-95796380D01*
X69270666Y-95844000D01*
X69365904Y-95939238D01*
X69413523Y-96034476D01*
X69461142Y-96224952D01*
X69461142Y-96367809D01*
X69413523Y-96558285D01*
X69365904Y-96653523D01*
X69270666Y-96748761D01*
X69127809Y-96796380D01*
X68889714Y-96796380D01*
X70413523Y-96796380D02*
X69842095Y-96796380D01*
X70127809Y-96796380D02*
X70127809Y-95796380D01*
X70032571Y-95939238D01*
X69937333Y-96034476D01*
X69842095Y-96082095D01*
X71032571Y-95796380D02*
X71127809Y-95796380D01*
X71223047Y-95844000D01*
X71270666Y-95891619D01*
X71318285Y-95986857D01*
X71365904Y-96177333D01*
X71365904Y-96415428D01*
X71318285Y-96605904D01*
X71270666Y-96701142D01*
X71223047Y-96748761D01*
X71127809Y-96796380D01*
X71032571Y-96796380D01*
X70937333Y-96748761D01*
X70889714Y-96701142D01*
X70842095Y-96605904D01*
X70794476Y-96415428D01*
X70794476Y-96177333D01*
X70842095Y-95986857D01*
X70889714Y-95891619D01*
X70937333Y-95844000D01*
X71032571Y-95796380D01*
%TO.C,D11*%
X87652380Y-58110285D02*
X86652380Y-58110285D01*
X86652380Y-57872190D01*
X86700000Y-57729333D01*
X86795238Y-57634095D01*
X86890476Y-57586476D01*
X87080952Y-57538857D01*
X87223809Y-57538857D01*
X87414285Y-57586476D01*
X87509523Y-57634095D01*
X87604761Y-57729333D01*
X87652380Y-57872190D01*
X87652380Y-58110285D01*
X87652380Y-56586476D02*
X87652380Y-57157904D01*
X87652380Y-56872190D02*
X86652380Y-56872190D01*
X86795238Y-56967428D01*
X86890476Y-57062666D01*
X86938095Y-57157904D01*
X87652380Y-55634095D02*
X87652380Y-56205523D01*
X87652380Y-55919809D02*
X86652380Y-55919809D01*
X86795238Y-56015047D01*
X86890476Y-56110285D01*
X86938095Y-56205523D01*
%TD*%
M02*
