%TF.GenerationSoftware,KiCad,Pcbnew,5.1.8-db9833491~88~ubuntu18.04.1*%
%TF.CreationDate,2020-11-25T20:35:17-08:00*%
%TF.ProjectId,xmas_ornament_2020,786d6173-5f6f-4726-9e61-6d656e745f32,rev?*%
%TF.SameCoordinates,Original*%
%TF.FileFunction,Copper,L2,Bot*%
%TF.FilePolarity,Positive*%
%FSLAX46Y46*%
G04 Gerber Fmt 4.6, Leading zero omitted, Abs format (unit mm)*
G04 Created by KiCad (PCBNEW 5.1.8-db9833491~88~ubuntu18.04.1) date 2020-11-25 20:35:17*
%MOMM*%
%LPD*%
G01*
G04 APERTURE LIST*
%TA.AperFunction,SMDPad,CuDef*%
%ADD10R,1.300000X1.500000*%
%TD*%
%TA.AperFunction,SMDPad,CuDef*%
%ADD11R,3.510000X2.540000*%
%TD*%
%TA.AperFunction,SMDPad,CuDef*%
%ADD12R,1.500000X1.300000*%
%TD*%
%TA.AperFunction,SMDPad,CuDef*%
%ADD13R,1.500000X0.700000*%
%TD*%
%TA.AperFunction,SMDPad,CuDef*%
%ADD14R,0.800000X1.000000*%
%TD*%
%TA.AperFunction,SMDPad,CuDef*%
%ADD15R,1.500000X0.600000*%
%TD*%
%TA.AperFunction,SMDPad,CuDef*%
%ADD16R,1.550000X0.600000*%
%TD*%
%TA.AperFunction,ViaPad*%
%ADD17C,0.600000*%
%TD*%
%TA.AperFunction,Conductor*%
%ADD18C,0.250000*%
%TD*%
G04 APERTURE END LIST*
D10*
%TO.P,F1,2*%
%TO.N,GND*%
X83820000Y-115998000D03*
%TO.P,F1,1*%
%TO.N,Net-(3V1-Pad1)*%
X83820000Y-118698000D03*
%TD*%
D11*
%TO.P,3V1,1*%
%TO.N,Net-(3V1-Pad1)*%
X77216000Y-116026000D03*
%TO.P,3V1,2*%
%TO.N,GND*%
X77216000Y-86666000D03*
%TD*%
D12*
%TO.P,F1,1*%
%TO.N,Net-(3V1-Pad1)*%
X85772000Y-133350000D03*
%TO.P,F1,2*%
%TO.N,Net-(F1-Pad2)*%
X88472000Y-133350000D03*
%TD*%
D10*
%TO.P,R1,1*%
%TO.N,Net-(D1-Pad1)*%
X102108000Y-88312000D03*
%TO.P,R1,2*%
%TO.N,/group1*%
X102108000Y-91012000D03*
%TD*%
%TO.P,R2,1*%
%TO.N,Net-(D1-Pad1)*%
X104902000Y-88312000D03*
%TO.P,R2,2*%
%TO.N,/group1*%
X104902000Y-91012000D03*
%TD*%
%TO.P,R3,1*%
%TO.N,Net-(D10-Pad1)*%
X94488000Y-109046000D03*
%TO.P,R3,2*%
%TO.N,/group0*%
X94488000Y-106346000D03*
%TD*%
%TO.P,R4,1*%
%TO.N,Net-(D10-Pad1)*%
X92202000Y-109046000D03*
%TO.P,R4,2*%
%TO.N,/group0*%
X92202000Y-106346000D03*
%TD*%
%TO.P,R5,1*%
%TO.N,GND*%
X86106000Y-88312000D03*
%TO.P,R5,2*%
%TO.N,Net-(D11-Pad1)*%
X86106000Y-91012000D03*
%TD*%
D13*
%TO.P,SW1,1*%
%TO.N,Net-(SW1-Pad1)*%
X91440000Y-130302000D03*
%TO.P,SW1,2*%
%TO.N,Net-(F1-Pad2)*%
X91440000Y-133350000D03*
%TO.P,SW1,3*%
%TO.N,+3V3*%
X91440000Y-134874000D03*
D14*
%TO.P,SW1,4*%
%TO.N,N/C*%
X92202000Y-128905000D03*
%TO.P,SW1,5*%
X94488000Y-128905000D03*
%TO.P,SW1,6*%
X92202000Y-136271000D03*
%TO.P,SW1,7*%
X94488000Y-136271000D03*
%TD*%
D15*
%TO.P,U1,1*%
%TO.N,Net-(U1-Pad1)*%
X99220000Y-89027000D03*
%TO.P,U1,2*%
%TO.N,Net-(U1-Pad2)*%
X99220000Y-90297000D03*
%TO.P,U1,3*%
%TO.N,GND*%
X99220000Y-91567000D03*
%TO.P,U1,4*%
X99220000Y-92837000D03*
%TO.P,U1,5*%
X99220000Y-94107000D03*
%TO.P,U1,6*%
X99220000Y-95377000D03*
%TO.P,U1,7*%
X99220000Y-96647000D03*
%TO.P,U1,8*%
X99220000Y-97917000D03*
%TO.P,U1,9*%
X93820000Y-97917000D03*
%TO.P,U1,10*%
%TO.N,Net-(U1-Pad10)*%
X93820000Y-96647000D03*
%TO.P,U1,11*%
%TO.N,Net-(U1-Pad11)*%
X93820000Y-95377000D03*
%TO.P,U1,12*%
%TO.N,Net-(U1-Pad12)*%
X93820000Y-94107000D03*
%TO.P,U1,13*%
%TO.N,Net-(U1-Pad13)*%
X93820000Y-92837000D03*
%TO.P,U1,14*%
%TO.N,Net-(U1-Pad14)*%
X93820000Y-91567000D03*
%TO.P,U1,15*%
%TO.N,/group1*%
X93820000Y-90297000D03*
%TO.P,U1,16*%
%TO.N,/group0*%
X93820000Y-89027000D03*
%TD*%
D16*
%TO.P,U2,1*%
%TO.N,Net-(U2-Pad1)*%
X107348000Y-101981000D03*
%TO.P,U2,2*%
%TO.N,Net-(U2-Pad2)*%
X107348000Y-103251000D03*
%TO.P,U2,3*%
%TO.N,Net-(U2-Pad3)*%
X107348000Y-104521000D03*
%TO.P,U2,4*%
%TO.N,GND*%
X107348000Y-105791000D03*
%TO.P,U2,5*%
%TO.N,Net-(D11-Pad2)*%
X101948000Y-105791000D03*
%TO.P,U2,6*%
%TO.N,Net-(U1-Pad2)*%
X101948000Y-104521000D03*
%TO.P,U2,7*%
%TO.N,Net-(U1-Pad1)*%
X101948000Y-103251000D03*
%TO.P,U2,8*%
%TO.N,+3V3*%
X101948000Y-101981000D03*
%TD*%
D17*
%TO.N,GND*%
X101600000Y-99568000D03*
X93980000Y-100076000D03*
X91440000Y-97536000D03*
X96520000Y-111252000D03*
%TO.N,Net-(D1-Pad1)*%
X102616000Y-93980000D03*
X108712000Y-98552000D03*
X86360000Y-93980000D03*
X82804000Y-97028000D03*
%TO.N,+3V3*%
X89408000Y-136144000D03*
X104648000Y-105156000D03*
%TO.N,Net-(D10-Pad1)*%
X103241001Y-109671001D03*
X88900000Y-110236000D03*
X64008000Y-104140000D03*
X94996000Y-81788000D03*
X80772000Y-74168000D03*
%TO.N,Net-(D11-Pad1)*%
X84836000Y-60452000D03*
%TO.N,Net-(D11-Pad2)*%
X93980000Y-59436000D03*
%TO.N,Net-(U1-Pad2)*%
X98044000Y-102108000D03*
X97536000Y-90932000D03*
%TD*%
D18*
%TO.N,Net-(3V1-Pad1)*%
X77216000Y-116026000D02*
X77216000Y-119126000D01*
X85772000Y-127682000D02*
X85772000Y-133350000D01*
X77216000Y-119126000D02*
X85772000Y-127682000D01*
X79888000Y-118698000D02*
X77216000Y-116026000D01*
X83820000Y-118698000D02*
X79888000Y-118698000D01*
%TO.N,GND*%
X108585000Y-105791000D02*
X107348000Y-105791000D01*
X109728000Y-104648000D02*
X108585000Y-105791000D01*
X109728000Y-101092000D02*
X109728000Y-104648000D01*
X106553000Y-97917000D02*
X109728000Y-101092000D01*
X99220000Y-91567000D02*
X99220000Y-92837000D01*
X99220000Y-92837000D02*
X99220000Y-94107000D01*
X99220000Y-94107000D02*
X99220000Y-95377000D01*
X99220000Y-95377000D02*
X99220000Y-96647000D01*
X99220000Y-96647000D02*
X99220000Y-97917000D01*
X77216000Y-86666000D02*
X84460000Y-86666000D01*
X84460000Y-86666000D02*
X86106000Y-88312000D01*
X102997000Y-97917000D02*
X102997000Y-98171000D01*
X102997000Y-97917000D02*
X106553000Y-97917000D01*
X99220000Y-97917000D02*
X102997000Y-97917000D01*
X102997000Y-98171000D02*
X101600000Y-99568000D01*
X101600000Y-99568000D02*
X101600000Y-99568000D01*
X93980000Y-98077000D02*
X93820000Y-97917000D01*
X93980000Y-100076000D02*
X93980000Y-98077000D01*
X91440000Y-93646000D02*
X86106000Y-88312000D01*
X91440000Y-97536000D02*
X91440000Y-93646000D01*
X83820000Y-115998000D02*
X92282000Y-115998000D01*
X92282000Y-115998000D02*
X96520000Y-111760000D01*
X96520000Y-111760000D02*
X96520000Y-111252000D01*
X96520000Y-111252000D02*
X96520000Y-111252000D01*
%TO.N,Net-(D1-Pad1)*%
X102108000Y-88312000D02*
X102108000Y-88392000D01*
X102108000Y-88392000D02*
X101092000Y-89408000D01*
X101092000Y-92456000D02*
X102616000Y-93980000D01*
X101092000Y-89408000D02*
X101092000Y-92456000D01*
X104902000Y-88312000D02*
X102108000Y-88312000D01*
X102616000Y-93980000D02*
X102616000Y-93980000D01*
X102616000Y-93980000D02*
X104140000Y-93980000D01*
X104140000Y-93980000D02*
X108712000Y-98552000D01*
X108712000Y-98552000D02*
X108712000Y-98552000D01*
X86360000Y-93980000D02*
X84328000Y-93980000D01*
X84328000Y-93980000D02*
X82804000Y-95504000D01*
X82804000Y-95504000D02*
X82804000Y-97028000D01*
X82804000Y-97028000D02*
X82804000Y-97028000D01*
%TO.N,+3V3*%
X91440000Y-134874000D02*
X90678000Y-134874000D01*
X90678000Y-134874000D02*
X89408000Y-136144000D01*
X89408000Y-136144000D02*
X89408000Y-136144000D01*
X104648000Y-103656000D02*
X104648000Y-105156000D01*
X102973000Y-101981000D02*
X104648000Y-103656000D01*
X101948000Y-101981000D02*
X102973000Y-101981000D01*
%TO.N,Net-(D10-Pad1)*%
X92202000Y-109046000D02*
X94488000Y-109046000D01*
X95113001Y-109671001D02*
X94488000Y-109046000D01*
X103241001Y-109671001D02*
X95113001Y-109671001D01*
X92202000Y-109046000D02*
X90090000Y-109046000D01*
X90090000Y-109046000D02*
X88900000Y-110236000D01*
X88900000Y-110236000D02*
X88900000Y-110236000D01*
X88900000Y-110236000D02*
X70104000Y-110236000D01*
X70104000Y-110236000D02*
X64008000Y-104140000D01*
X64008000Y-104140000D02*
X64008000Y-104140000D01*
X94996000Y-81788000D02*
X88392000Y-81788000D01*
X88392000Y-81788000D02*
X80772000Y-74168000D01*
X80772000Y-74168000D02*
X80772000Y-74168000D01*
%TO.N,Net-(D11-Pad1)*%
X77951998Y-91012000D02*
X74676000Y-87736002D01*
X86106000Y-91012000D02*
X77951998Y-91012000D01*
X74676000Y-76082246D02*
X79340812Y-65947188D01*
X74676000Y-87736002D02*
X74676000Y-76082246D01*
X79340812Y-65947188D02*
X84836000Y-60452000D01*
X84836000Y-60452000D02*
X84836000Y-60452000D01*
%TO.N,Net-(D11-Pad2)*%
X103632000Y-107696000D02*
X101948000Y-106012000D01*
X107316410Y-107696000D02*
X103632000Y-107696000D01*
X93980000Y-74768588D02*
X107130010Y-87918598D01*
X107130010Y-87918598D02*
X107130009Y-90102401D01*
X93980000Y-59436000D02*
X93980000Y-74768588D01*
X110178009Y-104834401D02*
X107316410Y-107696000D01*
X107130009Y-90102401D02*
X110178009Y-93150401D01*
X101948000Y-106012000D02*
X101948000Y-105791000D01*
X110178009Y-93150401D02*
X110178009Y-104834401D01*
%TO.N,Net-(F1-Pad2)*%
X91440000Y-133350000D02*
X88472000Y-133350000D01*
%TO.N,/group1*%
X102108000Y-91012000D02*
X104902000Y-91012000D01*
X104902000Y-91012000D02*
X105584000Y-91012000D01*
X105584000Y-91012000D02*
X106680000Y-89916000D01*
X106680000Y-88104998D02*
X105443002Y-86868000D01*
X106680000Y-89916000D02*
X106680000Y-88104998D01*
X94820000Y-90297000D02*
X93820000Y-90297000D01*
X98249000Y-86868000D02*
X94820000Y-90297000D01*
X105443002Y-86868000D02*
X98249000Y-86868000D01*
%TO.N,/group0*%
X93820000Y-89027000D02*
X93345000Y-89027000D01*
X93345000Y-89027000D02*
X92202000Y-90170000D01*
X92202000Y-90170000D02*
X92202000Y-106346000D01*
X92202000Y-106346000D02*
X94488000Y-106346000D01*
%TO.N,Net-(U1-Pad1)*%
X96910999Y-90631999D02*
X98515998Y-89027000D01*
X96910999Y-99238999D02*
X96910999Y-90631999D01*
X100923000Y-103251000D02*
X96910999Y-99238999D01*
X98515998Y-89027000D02*
X99220000Y-89027000D01*
X101948000Y-103251000D02*
X100923000Y-103251000D01*
%TO.N,Net-(U1-Pad2)*%
X101948000Y-104521000D02*
X100457000Y-104521000D01*
X100457000Y-104521000D02*
X98044000Y-102108000D01*
X98044000Y-102108000D02*
X98044000Y-102108000D01*
X98171000Y-90297000D02*
X99220000Y-90297000D01*
X97536000Y-90932000D02*
X98171000Y-90297000D01*
%TD*%
M02*
