%TF.GenerationSoftware,KiCad,Pcbnew,5.1.8-db9833491~88~ubuntu18.04.1*%
%TF.CreationDate,2020-11-25T20:35:17-08:00*%
%TF.ProjectId,xmas_ornament_2020,786d6173-5f6f-4726-9e61-6d656e745f32,rev?*%
%TF.SameCoordinates,Original*%
%TF.FileFunction,Legend,Bot*%
%TF.FilePolarity,Positive*%
%FSLAX46Y46*%
G04 Gerber Fmt 4.6, Leading zero omitted, Abs format (unit mm)*
G04 Created by KiCad (PCBNEW 5.1.8-db9833491~88~ubuntu18.04.1) date 2020-11-25 20:35:17*
%MOMM*%
%LPD*%
G01*
G04 APERTURE LIST*
%ADD10C,0.150000*%
%ADD11C,0.120000*%
G04 APERTURE END LIST*
D10*
X110971428Y-125420380D02*
X110971428Y-124420380D01*
X110542857Y-125420380D02*
X110542857Y-124896571D01*
X110590476Y-124801333D01*
X110685714Y-124753714D01*
X110828571Y-124753714D01*
X110923809Y-124801333D01*
X110971428Y-124848952D01*
X110209523Y-124753714D02*
X109828571Y-124753714D01*
X110066666Y-124420380D02*
X110066666Y-125277523D01*
X110019047Y-125372761D01*
X109923809Y-125420380D01*
X109828571Y-125420380D01*
X109638095Y-124753714D02*
X109257142Y-124753714D01*
X109495238Y-124420380D02*
X109495238Y-125277523D01*
X109447619Y-125372761D01*
X109352380Y-125420380D01*
X109257142Y-125420380D01*
X108923809Y-124753714D02*
X108923809Y-125753714D01*
X108923809Y-124801333D02*
X108828571Y-124753714D01*
X108638095Y-124753714D01*
X108542857Y-124801333D01*
X108495238Y-124848952D01*
X108447619Y-124944190D01*
X108447619Y-125229904D01*
X108495238Y-125325142D01*
X108542857Y-125372761D01*
X108638095Y-125420380D01*
X108828571Y-125420380D01*
X108923809Y-125372761D01*
X108066666Y-125372761D02*
X107971428Y-125420380D01*
X107780952Y-125420380D01*
X107685714Y-125372761D01*
X107638095Y-125277523D01*
X107638095Y-125229904D01*
X107685714Y-125134666D01*
X107780952Y-125087047D01*
X107923809Y-125087047D01*
X108019047Y-125039428D01*
X108066666Y-124944190D01*
X108066666Y-124896571D01*
X108019047Y-124801333D01*
X107923809Y-124753714D01*
X107780952Y-124753714D01*
X107685714Y-124801333D01*
X107209523Y-125325142D02*
X107161904Y-125372761D01*
X107209523Y-125420380D01*
X107257142Y-125372761D01*
X107209523Y-125325142D01*
X107209523Y-125420380D01*
X107209523Y-124801333D02*
X107161904Y-124848952D01*
X107209523Y-124896571D01*
X107257142Y-124848952D01*
X107209523Y-124801333D01*
X107209523Y-124896571D01*
X106019047Y-124372761D02*
X106876190Y-125658476D01*
X104971428Y-124372761D02*
X105828571Y-125658476D01*
X104209523Y-124753714D02*
X104209523Y-125563238D01*
X104257142Y-125658476D01*
X104304761Y-125706095D01*
X104400000Y-125753714D01*
X104542857Y-125753714D01*
X104638095Y-125706095D01*
X104209523Y-125372761D02*
X104304761Y-125420380D01*
X104495238Y-125420380D01*
X104590476Y-125372761D01*
X104638095Y-125325142D01*
X104685714Y-125229904D01*
X104685714Y-124944190D01*
X104638095Y-124848952D01*
X104590476Y-124801333D01*
X104495238Y-124753714D01*
X104304761Y-124753714D01*
X104209523Y-124801333D01*
X103733333Y-125420380D02*
X103733333Y-124753714D01*
X103733333Y-124420380D02*
X103780952Y-124468000D01*
X103733333Y-124515619D01*
X103685714Y-124468000D01*
X103733333Y-124420380D01*
X103733333Y-124515619D01*
X103400000Y-124753714D02*
X103019047Y-124753714D01*
X103257142Y-124420380D02*
X103257142Y-125277523D01*
X103209523Y-125372761D01*
X103114285Y-125420380D01*
X103019047Y-125420380D01*
X102685714Y-125420380D02*
X102685714Y-124420380D01*
X102257142Y-125420380D02*
X102257142Y-124896571D01*
X102304761Y-124801333D01*
X102400000Y-124753714D01*
X102542857Y-124753714D01*
X102638095Y-124801333D01*
X102685714Y-124848952D01*
X101352380Y-124753714D02*
X101352380Y-125420380D01*
X101780952Y-124753714D02*
X101780952Y-125277523D01*
X101733333Y-125372761D01*
X101638095Y-125420380D01*
X101495238Y-125420380D01*
X101400000Y-125372761D01*
X101352380Y-125325142D01*
X100876190Y-125420380D02*
X100876190Y-124420380D01*
X100876190Y-124801333D02*
X100780952Y-124753714D01*
X100590476Y-124753714D01*
X100495238Y-124801333D01*
X100447619Y-124848952D01*
X100400000Y-124944190D01*
X100400000Y-125229904D01*
X100447619Y-125325142D01*
X100495238Y-125372761D01*
X100590476Y-125420380D01*
X100780952Y-125420380D01*
X100876190Y-125372761D01*
X99971428Y-125325142D02*
X99923809Y-125372761D01*
X99971428Y-125420380D01*
X100019047Y-125372761D01*
X99971428Y-125325142D01*
X99971428Y-125420380D01*
X99066666Y-125372761D02*
X99161904Y-125420380D01*
X99352380Y-125420380D01*
X99447619Y-125372761D01*
X99495238Y-125325142D01*
X99542857Y-125229904D01*
X99542857Y-124944190D01*
X99495238Y-124848952D01*
X99447619Y-124801333D01*
X99352380Y-124753714D01*
X99161904Y-124753714D01*
X99066666Y-124801333D01*
X98495238Y-125420380D02*
X98590476Y-125372761D01*
X98638095Y-125325142D01*
X98685714Y-125229904D01*
X98685714Y-124944190D01*
X98638095Y-124848952D01*
X98590476Y-124801333D01*
X98495238Y-124753714D01*
X98352380Y-124753714D01*
X98257142Y-124801333D01*
X98209523Y-124848952D01*
X98161904Y-124944190D01*
X98161904Y-125229904D01*
X98209523Y-125325142D01*
X98257142Y-125372761D01*
X98352380Y-125420380D01*
X98495238Y-125420380D01*
X97733333Y-125420380D02*
X97733333Y-124753714D01*
X97733333Y-124848952D02*
X97685714Y-124801333D01*
X97590476Y-124753714D01*
X97447619Y-124753714D01*
X97352380Y-124801333D01*
X97304761Y-124896571D01*
X97304761Y-125420380D01*
X97304761Y-124896571D02*
X97257142Y-124801333D01*
X97161904Y-124753714D01*
X97019047Y-124753714D01*
X96923809Y-124801333D01*
X96876190Y-124896571D01*
X96876190Y-125420380D01*
X95685714Y-124372761D02*
X96542857Y-125658476D01*
X95352380Y-125420380D02*
X95352380Y-124420380D01*
X94923809Y-125420380D02*
X94923809Y-124896571D01*
X94971428Y-124801333D01*
X95066666Y-124753714D01*
X95209523Y-124753714D01*
X95304761Y-124801333D01*
X95352380Y-124848952D01*
X94447619Y-125420380D02*
X94447619Y-124753714D01*
X94447619Y-124420380D02*
X94495238Y-124468000D01*
X94447619Y-124515619D01*
X94400000Y-124468000D01*
X94447619Y-124420380D01*
X94447619Y-124515619D01*
X93542857Y-124753714D02*
X93542857Y-125563238D01*
X93590476Y-125658476D01*
X93638095Y-125706095D01*
X93733333Y-125753714D01*
X93876190Y-125753714D01*
X93971428Y-125706095D01*
X93542857Y-125372761D02*
X93638095Y-125420380D01*
X93828571Y-125420380D01*
X93923809Y-125372761D01*
X93971428Y-125325142D01*
X94019047Y-125229904D01*
X94019047Y-124944190D01*
X93971428Y-124848952D01*
X93923809Y-124801333D01*
X93828571Y-124753714D01*
X93638095Y-124753714D01*
X93542857Y-124801333D01*
X92685714Y-125372761D02*
X92780952Y-125420380D01*
X92971428Y-125420380D01*
X93066666Y-125372761D01*
X93114285Y-125277523D01*
X93114285Y-124896571D01*
X93066666Y-124801333D01*
X92971428Y-124753714D01*
X92780952Y-124753714D01*
X92685714Y-124801333D01*
X92638095Y-124896571D01*
X92638095Y-124991809D01*
X93114285Y-125087047D01*
X92304761Y-124753714D02*
X92114285Y-125420380D01*
X91923809Y-124944190D01*
X91733333Y-125420380D01*
X91542857Y-124753714D01*
X91019047Y-125420380D02*
X91114285Y-125372761D01*
X91161904Y-125325142D01*
X91209523Y-125229904D01*
X91209523Y-124944190D01*
X91161904Y-124848952D01*
X91114285Y-124801333D01*
X91019047Y-124753714D01*
X90876190Y-124753714D01*
X90780952Y-124801333D01*
X90733333Y-124848952D01*
X90685714Y-124944190D01*
X90685714Y-125229904D01*
X90733333Y-125325142D01*
X90780952Y-125372761D01*
X90876190Y-125420380D01*
X91019047Y-125420380D01*
X90304761Y-125372761D02*
X90209523Y-125420380D01*
X90019047Y-125420380D01*
X89923809Y-125372761D01*
X89876190Y-125277523D01*
X89876190Y-125229904D01*
X89923809Y-125134666D01*
X90019047Y-125087047D01*
X90161904Y-125087047D01*
X90257142Y-125039428D01*
X90304761Y-124944190D01*
X90304761Y-124896571D01*
X90257142Y-124801333D01*
X90161904Y-124753714D01*
X90019047Y-124753714D01*
X89923809Y-124801333D01*
X89304761Y-125420380D02*
X89400000Y-125372761D01*
X89447619Y-125325142D01*
X89495238Y-125229904D01*
X89495238Y-124944190D01*
X89447619Y-124848952D01*
X89400000Y-124801333D01*
X89304761Y-124753714D01*
X89161904Y-124753714D01*
X89066666Y-124801333D01*
X89019047Y-124848952D01*
X88971428Y-124944190D01*
X88971428Y-125229904D01*
X89019047Y-125325142D01*
X89066666Y-125372761D01*
X89161904Y-125420380D01*
X89304761Y-125420380D01*
X88542857Y-125420380D02*
X88542857Y-124753714D01*
X88542857Y-124944190D02*
X88495238Y-124848952D01*
X88447619Y-124801333D01*
X88352380Y-124753714D01*
X88257142Y-124753714D01*
X87495238Y-124753714D02*
X87495238Y-125420380D01*
X87923809Y-124753714D02*
X87923809Y-125277523D01*
X87876190Y-125372761D01*
X87780952Y-125420380D01*
X87638095Y-125420380D01*
X87542857Y-125372761D01*
X87495238Y-125325142D01*
X86304761Y-124372761D02*
X87161904Y-125658476D01*
X85542857Y-125372761D02*
X85638095Y-125420380D01*
X85828571Y-125420380D01*
X85923809Y-125372761D01*
X85971428Y-125325142D01*
X86019047Y-125229904D01*
X86019047Y-124944190D01*
X85971428Y-124848952D01*
X85923809Y-124801333D01*
X85828571Y-124753714D01*
X85638095Y-124753714D01*
X85542857Y-124801333D01*
X85114285Y-125420380D02*
X85114285Y-124420380D01*
X84685714Y-125420380D02*
X84685714Y-124896571D01*
X84733333Y-124801333D01*
X84828571Y-124753714D01*
X84971428Y-124753714D01*
X85066666Y-124801333D01*
X85114285Y-124848952D01*
X84209523Y-125420380D02*
X84209523Y-124753714D01*
X84209523Y-124944190D02*
X84161904Y-124848952D01*
X84114285Y-124801333D01*
X84019047Y-124753714D01*
X83923809Y-124753714D01*
X83590476Y-125420380D02*
X83590476Y-124753714D01*
X83590476Y-124420380D02*
X83638095Y-124468000D01*
X83590476Y-124515619D01*
X83542857Y-124468000D01*
X83590476Y-124420380D01*
X83590476Y-124515619D01*
X83161904Y-125372761D02*
X83066666Y-125420380D01*
X82876190Y-125420380D01*
X82780952Y-125372761D01*
X82733333Y-125277523D01*
X82733333Y-125229904D01*
X82780952Y-125134666D01*
X82876190Y-125087047D01*
X83019047Y-125087047D01*
X83114285Y-125039428D01*
X83161904Y-124944190D01*
X83161904Y-124896571D01*
X83114285Y-124801333D01*
X83019047Y-124753714D01*
X82876190Y-124753714D01*
X82780952Y-124801333D01*
X82447619Y-124753714D02*
X82066666Y-124753714D01*
X82304761Y-124420380D02*
X82304761Y-125277523D01*
X82257142Y-125372761D01*
X82161904Y-125420380D01*
X82066666Y-125420380D01*
X81733333Y-125420380D02*
X81733333Y-124753714D01*
X81733333Y-124848952D02*
X81685714Y-124801333D01*
X81590476Y-124753714D01*
X81447619Y-124753714D01*
X81352380Y-124801333D01*
X81304761Y-124896571D01*
X81304761Y-125420380D01*
X81304761Y-124896571D02*
X81257142Y-124801333D01*
X81161904Y-124753714D01*
X81019047Y-124753714D01*
X80923809Y-124801333D01*
X80876190Y-124896571D01*
X80876190Y-125420380D01*
X79971428Y-125420380D02*
X79971428Y-124896571D01*
X80019047Y-124801333D01*
X80114285Y-124753714D01*
X80304761Y-124753714D01*
X80400000Y-124801333D01*
X79971428Y-125372761D02*
X80066666Y-125420380D01*
X80304761Y-125420380D01*
X80400000Y-125372761D01*
X80447619Y-125277523D01*
X80447619Y-125182285D01*
X80400000Y-125087047D01*
X80304761Y-125039428D01*
X80066666Y-125039428D01*
X79971428Y-124991809D01*
X79542857Y-125372761D02*
X79447619Y-125420380D01*
X79257142Y-125420380D01*
X79161904Y-125372761D01*
X79114285Y-125277523D01*
X79114285Y-125229904D01*
X79161904Y-125134666D01*
X79257142Y-125087047D01*
X79400000Y-125087047D01*
X79495238Y-125039428D01*
X79542857Y-124944190D01*
X79542857Y-124896571D01*
X79495238Y-124801333D01*
X79400000Y-124753714D01*
X79257142Y-124753714D01*
X79161904Y-124801333D01*
X78923809Y-125515619D02*
X78161904Y-125515619D01*
X77780952Y-125420380D02*
X77876190Y-125372761D01*
X77923809Y-125325142D01*
X77971428Y-125229904D01*
X77971428Y-124944190D01*
X77923809Y-124848952D01*
X77876190Y-124801333D01*
X77780952Y-124753714D01*
X77638095Y-124753714D01*
X77542857Y-124801333D01*
X77495238Y-124848952D01*
X77447619Y-124944190D01*
X77447619Y-125229904D01*
X77495238Y-125325142D01*
X77542857Y-125372761D01*
X77638095Y-125420380D01*
X77780952Y-125420380D01*
X77019047Y-125420380D02*
X77019047Y-124753714D01*
X77019047Y-124944190D02*
X76971428Y-124848952D01*
X76923809Y-124801333D01*
X76828571Y-124753714D01*
X76733333Y-124753714D01*
X76400000Y-124753714D02*
X76400000Y-125420380D01*
X76400000Y-124848952D02*
X76352380Y-124801333D01*
X76257142Y-124753714D01*
X76114285Y-124753714D01*
X76019047Y-124801333D01*
X75971428Y-124896571D01*
X75971428Y-125420380D01*
X75066666Y-125420380D02*
X75066666Y-124896571D01*
X75114285Y-124801333D01*
X75209523Y-124753714D01*
X75400000Y-124753714D01*
X75495238Y-124801333D01*
X75066666Y-125372761D02*
X75161904Y-125420380D01*
X75400000Y-125420380D01*
X75495238Y-125372761D01*
X75542857Y-125277523D01*
X75542857Y-125182285D01*
X75495238Y-125087047D01*
X75400000Y-125039428D01*
X75161904Y-125039428D01*
X75066666Y-124991809D01*
X74590476Y-125420380D02*
X74590476Y-124753714D01*
X74590476Y-124848952D02*
X74542857Y-124801333D01*
X74447619Y-124753714D01*
X74304761Y-124753714D01*
X74209523Y-124801333D01*
X74161904Y-124896571D01*
X74161904Y-125420380D01*
X74161904Y-124896571D02*
X74114285Y-124801333D01*
X74019047Y-124753714D01*
X73876190Y-124753714D01*
X73780952Y-124801333D01*
X73733333Y-124896571D01*
X73733333Y-125420380D01*
X72876190Y-125372761D02*
X72971428Y-125420380D01*
X73161904Y-125420380D01*
X73257142Y-125372761D01*
X73304761Y-125277523D01*
X73304761Y-124896571D01*
X73257142Y-124801333D01*
X73161904Y-124753714D01*
X72971428Y-124753714D01*
X72876190Y-124801333D01*
X72828571Y-124896571D01*
X72828571Y-124991809D01*
X73304761Y-125087047D01*
X72400000Y-124753714D02*
X72400000Y-125420380D01*
X72400000Y-124848952D02*
X72352380Y-124801333D01*
X72257142Y-124753714D01*
X72114285Y-124753714D01*
X72019047Y-124801333D01*
X71971428Y-124896571D01*
X71971428Y-125420380D01*
X71638095Y-124753714D02*
X71257142Y-124753714D01*
X71495238Y-124420380D02*
X71495238Y-125277523D01*
X71447619Y-125372761D01*
X71352380Y-125420380D01*
X71257142Y-125420380D01*
X71161904Y-125515619D02*
X70400000Y-125515619D01*
X70209523Y-124515619D02*
X70161904Y-124468000D01*
X70066666Y-124420380D01*
X69828571Y-124420380D01*
X69733333Y-124468000D01*
X69685714Y-124515619D01*
X69638095Y-124610857D01*
X69638095Y-124706095D01*
X69685714Y-124848952D01*
X70257142Y-125420380D01*
X69638095Y-125420380D01*
X69019047Y-124420380D02*
X68923809Y-124420380D01*
X68828571Y-124468000D01*
X68780952Y-124515619D01*
X68733333Y-124610857D01*
X68685714Y-124801333D01*
X68685714Y-125039428D01*
X68733333Y-125229904D01*
X68780952Y-125325142D01*
X68828571Y-125372761D01*
X68923809Y-125420380D01*
X69019047Y-125420380D01*
X69114285Y-125372761D01*
X69161904Y-125325142D01*
X69209523Y-125229904D01*
X69257142Y-125039428D01*
X69257142Y-124801333D01*
X69209523Y-124610857D01*
X69161904Y-124515619D01*
X69114285Y-124468000D01*
X69019047Y-124420380D01*
X68304761Y-124515619D02*
X68257142Y-124468000D01*
X68161904Y-124420380D01*
X67923809Y-124420380D01*
X67828571Y-124468000D01*
X67780952Y-124515619D01*
X67733333Y-124610857D01*
X67733333Y-124706095D01*
X67780952Y-124848952D01*
X68352380Y-125420380D01*
X67733333Y-125420380D01*
X67114285Y-124420380D02*
X67019047Y-124420380D01*
X66923809Y-124468000D01*
X66876190Y-124515619D01*
X66828571Y-124610857D01*
X66780952Y-124801333D01*
X66780952Y-125039428D01*
X66828571Y-125229904D01*
X66876190Y-125325142D01*
X66923809Y-125372761D01*
X67019047Y-125420380D01*
X67114285Y-125420380D01*
X67209523Y-125372761D01*
X67257142Y-125325142D01*
X67304761Y-125229904D01*
X67352380Y-125039428D01*
X67352380Y-124801333D01*
X67304761Y-124610857D01*
X67257142Y-124515619D01*
X67209523Y-124468000D01*
X67114285Y-124420380D01*
X76668380Y-92552380D02*
X76668380Y-93171428D01*
X77049333Y-92838095D01*
X77049333Y-92980952D01*
X77096952Y-93076190D01*
X77144571Y-93123809D01*
X77239809Y-93171428D01*
X77477904Y-93171428D01*
X77573142Y-93123809D01*
X77620761Y-93076190D01*
X77668380Y-92980952D01*
X77668380Y-92695238D01*
X77620761Y-92600000D01*
X77573142Y-92552380D01*
X76668380Y-93457142D02*
X77668380Y-93790476D01*
X76668380Y-94123809D01*
X76763619Y-95171428D02*
X76716000Y-95219047D01*
X76668380Y-95314285D01*
X76668380Y-95552380D01*
X76716000Y-95647619D01*
X76763619Y-95695238D01*
X76858857Y-95742857D01*
X76954095Y-95742857D01*
X77096952Y-95695238D01*
X77668380Y-95123809D01*
X77668380Y-95742857D01*
X76668380Y-96361904D02*
X76668380Y-96457142D01*
X76716000Y-96552380D01*
X76763619Y-96600000D01*
X76858857Y-96647619D01*
X77049333Y-96695238D01*
X77287428Y-96695238D01*
X77477904Y-96647619D01*
X77573142Y-96600000D01*
X77620761Y-96552380D01*
X77668380Y-96457142D01*
X77668380Y-96361904D01*
X77620761Y-96266666D01*
X77573142Y-96219047D01*
X77477904Y-96171428D01*
X77287428Y-96123809D01*
X77049333Y-96123809D01*
X76858857Y-96171428D01*
X76763619Y-96219047D01*
X76716000Y-96266666D01*
X76668380Y-96361904D01*
X76668380Y-97028571D02*
X76668380Y-97647619D01*
X77049333Y-97314285D01*
X77049333Y-97457142D01*
X77096952Y-97552380D01*
X77144571Y-97600000D01*
X77239809Y-97647619D01*
X77477904Y-97647619D01*
X77573142Y-97600000D01*
X77620761Y-97552380D01*
X77668380Y-97457142D01*
X77668380Y-97171428D01*
X77620761Y-97076190D01*
X77573142Y-97028571D01*
X76763619Y-98028571D02*
X76716000Y-98076190D01*
X76668380Y-98171428D01*
X76668380Y-98409523D01*
X76716000Y-98504761D01*
X76763619Y-98552380D01*
X76858857Y-98600000D01*
X76954095Y-98600000D01*
X77096952Y-98552380D01*
X77668380Y-97980952D01*
X77668380Y-98600000D01*
X77573142Y-100361904D02*
X77620761Y-100314285D01*
X77668380Y-100171428D01*
X77668380Y-100076190D01*
X77620761Y-99933333D01*
X77525523Y-99838095D01*
X77430285Y-99790476D01*
X77239809Y-99742857D01*
X77096952Y-99742857D01*
X76906476Y-99790476D01*
X76811238Y-99838095D01*
X76716000Y-99933333D01*
X76668380Y-100076190D01*
X76668380Y-100171428D01*
X76716000Y-100314285D01*
X76763619Y-100361904D01*
X77668380Y-100933333D02*
X77620761Y-100838095D01*
X77573142Y-100790476D01*
X77477904Y-100742857D01*
X77192190Y-100742857D01*
X77096952Y-100790476D01*
X77049333Y-100838095D01*
X77001714Y-100933333D01*
X77001714Y-101076190D01*
X77049333Y-101171428D01*
X77096952Y-101219047D01*
X77192190Y-101266666D01*
X77477904Y-101266666D01*
X77573142Y-101219047D01*
X77620761Y-101171428D01*
X77668380Y-101076190D01*
X77668380Y-100933333D01*
X77668380Y-101695238D02*
X77001714Y-101695238D01*
X76668380Y-101695238D02*
X76716000Y-101647619D01*
X76763619Y-101695238D01*
X76716000Y-101742857D01*
X76668380Y-101695238D01*
X76763619Y-101695238D01*
X77001714Y-102171428D02*
X77668380Y-102171428D01*
X77096952Y-102171428D02*
X77049333Y-102219047D01*
X77001714Y-102314285D01*
X77001714Y-102457142D01*
X77049333Y-102552380D01*
X77144571Y-102600000D01*
X77668380Y-102600000D01*
X77573142Y-104409523D02*
X77620761Y-104361904D01*
X77668380Y-104219047D01*
X77668380Y-104123809D01*
X77620761Y-103980952D01*
X77525523Y-103885714D01*
X77430285Y-103838095D01*
X77239809Y-103790476D01*
X77096952Y-103790476D01*
X76906476Y-103838095D01*
X76811238Y-103885714D01*
X76716000Y-103980952D01*
X76668380Y-104123809D01*
X76668380Y-104219047D01*
X76716000Y-104361904D01*
X76763619Y-104409523D01*
X77620761Y-105219047D02*
X77668380Y-105123809D01*
X77668380Y-104933333D01*
X77620761Y-104838095D01*
X77525523Y-104790476D01*
X77144571Y-104790476D01*
X77049333Y-104838095D01*
X77001714Y-104933333D01*
X77001714Y-105123809D01*
X77049333Y-105219047D01*
X77144571Y-105266666D01*
X77239809Y-105266666D01*
X77335047Y-104790476D01*
X77668380Y-105838095D02*
X77620761Y-105742857D01*
X77525523Y-105695238D01*
X76668380Y-105695238D01*
X77668380Y-106361904D02*
X77620761Y-106266666D01*
X77525523Y-106219047D01*
X76668380Y-106219047D01*
X77144571Y-107838095D02*
X77192190Y-107980952D01*
X77239809Y-108028571D01*
X77335047Y-108076190D01*
X77477904Y-108076190D01*
X77573142Y-108028571D01*
X77620761Y-107980952D01*
X77668380Y-107885714D01*
X77668380Y-107504761D01*
X76668380Y-107504761D01*
X76668380Y-107838095D01*
X76716000Y-107933333D01*
X76763619Y-107980952D01*
X76858857Y-108028571D01*
X76954095Y-108028571D01*
X77049333Y-107980952D01*
X77096952Y-107933333D01*
X77144571Y-107838095D01*
X77144571Y-107504761D01*
X77668380Y-108933333D02*
X77144571Y-108933333D01*
X77049333Y-108885714D01*
X77001714Y-108790476D01*
X77001714Y-108600000D01*
X77049333Y-108504761D01*
X77620761Y-108933333D02*
X77668380Y-108838095D01*
X77668380Y-108600000D01*
X77620761Y-108504761D01*
X77525523Y-108457142D01*
X77430285Y-108457142D01*
X77335047Y-108504761D01*
X77287428Y-108600000D01*
X77287428Y-108838095D01*
X77239809Y-108933333D01*
X77001714Y-109266666D02*
X77001714Y-109647619D01*
X76668380Y-109409523D02*
X77525523Y-109409523D01*
X77620761Y-109457142D01*
X77668380Y-109552380D01*
X77668380Y-109647619D01*
X77001714Y-109838095D02*
X77001714Y-110219047D01*
X76668380Y-109980952D02*
X77525523Y-109980952D01*
X77620761Y-110028571D01*
X77668380Y-110123809D01*
X77668380Y-110219047D01*
X77573142Y-110552380D02*
X77620761Y-110600000D01*
X77668380Y-110552380D01*
X77620761Y-110504761D01*
X77573142Y-110552380D01*
X77668380Y-110552380D01*
X100612761Y-78278095D02*
X100612761Y-76978095D01*
X100179428Y-77906666D01*
X99746095Y-76978095D01*
X99746095Y-78278095D01*
X98631809Y-78216190D02*
X98755619Y-78278095D01*
X99003238Y-78278095D01*
X99127047Y-78216190D01*
X99188952Y-78092380D01*
X99188952Y-77597142D01*
X99127047Y-77473333D01*
X99003238Y-77411428D01*
X98755619Y-77411428D01*
X98631809Y-77473333D01*
X98569904Y-77597142D01*
X98569904Y-77720952D01*
X99188952Y-77844761D01*
X98012761Y-78278095D02*
X98012761Y-77411428D01*
X98012761Y-77659047D02*
X97950857Y-77535238D01*
X97888952Y-77473333D01*
X97765142Y-77411428D01*
X97641333Y-77411428D01*
X97208000Y-78278095D02*
X97208000Y-77411428D01*
X97208000Y-77659047D02*
X97146095Y-77535238D01*
X97084190Y-77473333D01*
X96960380Y-77411428D01*
X96836571Y-77411428D01*
X96527047Y-77411428D02*
X96217523Y-78278095D01*
X95908000Y-77411428D02*
X96217523Y-78278095D01*
X96341333Y-78587619D01*
X96403238Y-78649523D01*
X96527047Y-78711428D01*
X93679428Y-78154285D02*
X93741333Y-78216190D01*
X93927047Y-78278095D01*
X94050857Y-78278095D01*
X94236571Y-78216190D01*
X94360380Y-78092380D01*
X94422285Y-77968571D01*
X94484190Y-77720952D01*
X94484190Y-77535238D01*
X94422285Y-77287619D01*
X94360380Y-77163809D01*
X94236571Y-77040000D01*
X94050857Y-76978095D01*
X93927047Y-76978095D01*
X93741333Y-77040000D01*
X93679428Y-77101904D01*
X93122285Y-78278095D02*
X93122285Y-76978095D01*
X92565142Y-78278095D02*
X92565142Y-77597142D01*
X92627047Y-77473333D01*
X92750857Y-77411428D01*
X92936571Y-77411428D01*
X93060380Y-77473333D01*
X93122285Y-77535238D01*
X91946095Y-78278095D02*
X91946095Y-77411428D01*
X91946095Y-77659047D02*
X91884190Y-77535238D01*
X91822285Y-77473333D01*
X91698476Y-77411428D01*
X91574666Y-77411428D01*
X91141333Y-78278095D02*
X91141333Y-77411428D01*
X91141333Y-76978095D02*
X91203238Y-77040000D01*
X91141333Y-77101904D01*
X91079428Y-77040000D01*
X91141333Y-76978095D01*
X91141333Y-77101904D01*
X90584190Y-78216190D02*
X90460380Y-78278095D01*
X90212761Y-78278095D01*
X90088952Y-78216190D01*
X90027047Y-78092380D01*
X90027047Y-78030476D01*
X90088952Y-77906666D01*
X90212761Y-77844761D01*
X90398476Y-77844761D01*
X90522285Y-77782857D01*
X90584190Y-77659047D01*
X90584190Y-77597142D01*
X90522285Y-77473333D01*
X90398476Y-77411428D01*
X90212761Y-77411428D01*
X90088952Y-77473333D01*
X89655619Y-77411428D02*
X89160380Y-77411428D01*
X89469904Y-76978095D02*
X89469904Y-78092380D01*
X89408000Y-78216190D01*
X89284190Y-78278095D01*
X89160380Y-78278095D01*
X88727047Y-78278095D02*
X88727047Y-77411428D01*
X88727047Y-77535238D02*
X88665142Y-77473333D01*
X88541333Y-77411428D01*
X88355619Y-77411428D01*
X88231809Y-77473333D01*
X88169904Y-77597142D01*
X88169904Y-78278095D01*
X88169904Y-77597142D02*
X88108000Y-77473333D01*
X87984190Y-77411428D01*
X87798476Y-77411428D01*
X87674666Y-77473333D01*
X87612761Y-77597142D01*
X87612761Y-78278095D01*
X86436571Y-78278095D02*
X86436571Y-77597142D01*
X86498476Y-77473333D01*
X86622285Y-77411428D01*
X86869904Y-77411428D01*
X86993714Y-77473333D01*
X86436571Y-78216190D02*
X86560380Y-78278095D01*
X86869904Y-78278095D01*
X86993714Y-78216190D01*
X87055619Y-78092380D01*
X87055619Y-77968571D01*
X86993714Y-77844761D01*
X86869904Y-77782857D01*
X86560380Y-77782857D01*
X86436571Y-77720952D01*
X85879428Y-78216190D02*
X85755619Y-78278095D01*
X85508000Y-78278095D01*
X85384190Y-78216190D01*
X85322285Y-78092380D01*
X85322285Y-78030476D01*
X85384190Y-77906666D01*
X85508000Y-77844761D01*
X85693714Y-77844761D01*
X85817523Y-77782857D01*
X85879428Y-77659047D01*
X85879428Y-77597142D01*
X85817523Y-77473333D01*
X85693714Y-77411428D01*
X85508000Y-77411428D01*
X85384190Y-77473333D01*
X84765142Y-78154285D02*
X84703238Y-78216190D01*
X84765142Y-78278095D01*
X84827047Y-78216190D01*
X84765142Y-78154285D01*
X84765142Y-78278095D01*
X84765142Y-77782857D02*
X84827047Y-77040000D01*
X84765142Y-76978095D01*
X84703238Y-77040000D01*
X84765142Y-77782857D01*
X84765142Y-76978095D01*
X83217523Y-77101904D02*
X83155619Y-77040000D01*
X83031809Y-76978095D01*
X82722285Y-76978095D01*
X82598476Y-77040000D01*
X82536571Y-77101904D01*
X82474666Y-77225714D01*
X82474666Y-77349523D01*
X82536571Y-77535238D01*
X83279428Y-78278095D01*
X82474666Y-78278095D01*
X81669904Y-76978095D02*
X81546095Y-76978095D01*
X81422285Y-77040000D01*
X81360380Y-77101904D01*
X81298476Y-77225714D01*
X81236571Y-77473333D01*
X81236571Y-77782857D01*
X81298476Y-78030476D01*
X81360380Y-78154285D01*
X81422285Y-78216190D01*
X81546095Y-78278095D01*
X81669904Y-78278095D01*
X81793714Y-78216190D01*
X81855619Y-78154285D01*
X81917523Y-78030476D01*
X81979428Y-77782857D01*
X81979428Y-77473333D01*
X81917523Y-77225714D01*
X81855619Y-77101904D01*
X81793714Y-77040000D01*
X81669904Y-76978095D01*
X80741333Y-77101904D02*
X80679428Y-77040000D01*
X80555619Y-76978095D01*
X80246095Y-76978095D01*
X80122285Y-77040000D01*
X80060380Y-77101904D01*
X79998476Y-77225714D01*
X79998476Y-77349523D01*
X80060380Y-77535238D01*
X80803238Y-78278095D01*
X79998476Y-78278095D01*
X79193714Y-76978095D02*
X79069904Y-76978095D01*
X78946095Y-77040000D01*
X78884190Y-77101904D01*
X78822285Y-77225714D01*
X78760380Y-77473333D01*
X78760380Y-77782857D01*
X78822285Y-78030476D01*
X78884190Y-78154285D01*
X78946095Y-78216190D01*
X79069904Y-78278095D01*
X79193714Y-78278095D01*
X79317523Y-78216190D01*
X79379428Y-78154285D01*
X79441333Y-78030476D01*
X79503238Y-77782857D01*
X79503238Y-77473333D01*
X79441333Y-77225714D01*
X79379428Y-77101904D01*
X79317523Y-77040000D01*
X79193714Y-76978095D01*
X78203238Y-78154285D02*
X78141333Y-78216190D01*
X78203238Y-78278095D01*
X78265142Y-78216190D01*
X78203238Y-78154285D01*
X78203238Y-78278095D01*
X78203238Y-77782857D02*
X78265142Y-77040000D01*
X78203238Y-76978095D01*
X78141333Y-77040000D01*
X78203238Y-77782857D01*
X78203238Y-76978095D01*
X97177047Y-79697142D02*
X97610380Y-79697142D01*
X97610380Y-80378095D02*
X97610380Y-79078095D01*
X96991333Y-79078095D01*
X96496095Y-80378095D02*
X96496095Y-79511428D01*
X96496095Y-79759047D02*
X96434190Y-79635238D01*
X96372285Y-79573333D01*
X96248476Y-79511428D01*
X96124666Y-79511428D01*
X95505619Y-80378095D02*
X95629428Y-80316190D01*
X95691333Y-80254285D01*
X95753238Y-80130476D01*
X95753238Y-79759047D01*
X95691333Y-79635238D01*
X95629428Y-79573333D01*
X95505619Y-79511428D01*
X95319904Y-79511428D01*
X95196095Y-79573333D01*
X95134190Y-79635238D01*
X95072285Y-79759047D01*
X95072285Y-80130476D01*
X95134190Y-80254285D01*
X95196095Y-80316190D01*
X95319904Y-80378095D01*
X95505619Y-80378095D01*
X94515142Y-80378095D02*
X94515142Y-79511428D01*
X94515142Y-79635238D02*
X94453238Y-79573333D01*
X94329428Y-79511428D01*
X94143714Y-79511428D01*
X94019904Y-79573333D01*
X93958000Y-79697142D01*
X93958000Y-80378095D01*
X93958000Y-79697142D02*
X93896095Y-79573333D01*
X93772285Y-79511428D01*
X93586571Y-79511428D01*
X93462761Y-79573333D01*
X93400857Y-79697142D01*
X93400857Y-80378095D01*
X91853238Y-80316190D02*
X91667523Y-80378095D01*
X91358000Y-80378095D01*
X91234190Y-80316190D01*
X91172285Y-80254285D01*
X91110380Y-80130476D01*
X91110380Y-80006666D01*
X91172285Y-79882857D01*
X91234190Y-79820952D01*
X91358000Y-79759047D01*
X91605619Y-79697142D01*
X91729428Y-79635238D01*
X91791333Y-79573333D01*
X91853238Y-79449523D01*
X91853238Y-79325714D01*
X91791333Y-79201904D01*
X91729428Y-79140000D01*
X91605619Y-79078095D01*
X91296095Y-79078095D01*
X91110380Y-79140000D01*
X90367523Y-80378095D02*
X90491333Y-80316190D01*
X90553238Y-80254285D01*
X90615142Y-80130476D01*
X90615142Y-79759047D01*
X90553238Y-79635238D01*
X90491333Y-79573333D01*
X90367523Y-79511428D01*
X90181809Y-79511428D01*
X90058000Y-79573333D01*
X89996095Y-79635238D01*
X89934190Y-79759047D01*
X89934190Y-80130476D01*
X89996095Y-80254285D01*
X90058000Y-80316190D01*
X90181809Y-80378095D01*
X90367523Y-80378095D01*
X89191333Y-80378095D02*
X89315142Y-80316190D01*
X89377047Y-80192380D01*
X89377047Y-79078095D01*
X86653238Y-80378095D02*
X86715142Y-80378095D01*
X86838952Y-80316190D01*
X87024666Y-80130476D01*
X87334190Y-79759047D01*
X87458000Y-79573333D01*
X87519904Y-79387619D01*
X87519904Y-79263809D01*
X87458000Y-79140000D01*
X87334190Y-79078095D01*
X87272285Y-79078095D01*
X87148476Y-79140000D01*
X87086571Y-79263809D01*
X87086571Y-79325714D01*
X87148476Y-79449523D01*
X87210380Y-79511428D01*
X87581809Y-79759047D01*
X87643714Y-79820952D01*
X87705619Y-79944761D01*
X87705619Y-80130476D01*
X87643714Y-80254285D01*
X87581809Y-80316190D01*
X87458000Y-80378095D01*
X87272285Y-80378095D01*
X87148476Y-80316190D01*
X87086571Y-80254285D01*
X86900857Y-80006666D01*
X86838952Y-79820952D01*
X86838952Y-79697142D01*
X85105619Y-79697142D02*
X84672285Y-79697142D01*
X84486571Y-80378095D02*
X85105619Y-80378095D01*
X85105619Y-79078095D01*
X84486571Y-79078095D01*
X83743714Y-80378095D02*
X83867523Y-80316190D01*
X83929428Y-80192380D01*
X83929428Y-79078095D01*
X83372285Y-79511428D02*
X83062761Y-80378095D01*
X82753238Y-79511428D01*
X82258000Y-80378095D02*
X82258000Y-79511428D01*
X82258000Y-79078095D02*
X82319904Y-79140000D01*
X82258000Y-79201904D01*
X82196095Y-79140000D01*
X82258000Y-79078095D01*
X82258000Y-79201904D01*
X81700857Y-80316190D02*
X81577047Y-80378095D01*
X81329428Y-80378095D01*
X81205619Y-80316190D01*
X81143714Y-80192380D01*
X81143714Y-80130476D01*
X81205619Y-80006666D01*
X81329428Y-79944761D01*
X81515142Y-79944761D01*
X81638952Y-79882857D01*
X81700857Y-79759047D01*
X81700857Y-79697142D01*
X81638952Y-79573333D01*
X81515142Y-79511428D01*
X81329428Y-79511428D01*
X81205619Y-79573333D01*
D11*
%TO.C,F1*%
X84570000Y-119548000D02*
X83070000Y-119548000D01*
X84570000Y-119548000D02*
X84570000Y-116348000D01*
X83070000Y-116348000D02*
X83070000Y-119548000D01*
%TO.C,3V1*%
X75316000Y-115656000D02*
X73606000Y-115656000D01*
X73606000Y-112038000D02*
X73606000Y-115656000D01*
X69106000Y-105206000D02*
X69106000Y-109193300D01*
X71306000Y-103006000D02*
X69106000Y-105206000D01*
X71306000Y-99686000D02*
X71306000Y-103006000D01*
X71306000Y-99686000D02*
X69106000Y-97486000D01*
X69106000Y-93498700D02*
X69106000Y-97486000D01*
X75316000Y-87036000D02*
X73606000Y-87036000D01*
X73606000Y-87036000D02*
X73606000Y-90654000D01*
X80826000Y-90654000D02*
X80826000Y-87036000D01*
X79116000Y-87036000D02*
X80826000Y-87036000D01*
X85326000Y-109193300D02*
X85326000Y-93498700D01*
X79116000Y-115656000D02*
X80826000Y-115656000D01*
X80826000Y-115656000D02*
X80826000Y-112038000D01*
X69104211Y-109191370D02*
G75*
G03*
X73606000Y-112038000I8111789J7845370D01*
G01*
X85327789Y-93500630D02*
G75*
G03*
X80826000Y-90654000I-8111789J-7845370D01*
G01*
X69104211Y-93500630D02*
G75*
G02*
X73606000Y-90654000I8111789J-7845370D01*
G01*
X85327789Y-109191370D02*
G75*
G02*
X80826000Y-112038000I-8111789J7845370D01*
G01*
%TO.C,F1*%
X88122000Y-132600000D02*
X84922000Y-132600000D01*
X84922000Y-134100000D02*
X88122000Y-134100000D01*
X84922000Y-134100000D02*
X84922000Y-132600000D01*
%TO.C,R1*%
X102988000Y-90262000D02*
X102988000Y-89062000D01*
X101228000Y-89062000D02*
X101228000Y-90262000D01*
%TO.C,R2*%
X105782000Y-90262000D02*
X105782000Y-89062000D01*
X104022000Y-89062000D02*
X104022000Y-90262000D01*
%TO.C,R3*%
X93608000Y-107096000D02*
X93608000Y-108296000D01*
X95368000Y-108296000D02*
X95368000Y-107096000D01*
%TO.C,R4*%
X91322000Y-107096000D02*
X91322000Y-108296000D01*
X93082000Y-108296000D02*
X93082000Y-107096000D01*
%TO.C,R5*%
X86986000Y-90262000D02*
X86986000Y-89062000D01*
X85226000Y-89062000D02*
X85226000Y-90262000D01*
D10*
%TO.C,SW1*%
X94869000Y-129540000D02*
X94869000Y-135636000D01*
%TO.C,U1*%
X98595000Y-88397000D02*
X98595000Y-88422000D01*
X94445000Y-88397000D02*
X94445000Y-88502000D01*
X94445000Y-98547000D02*
X94445000Y-98442000D01*
X98595000Y-98547000D02*
X98595000Y-98442000D01*
X98595000Y-88397000D02*
X94445000Y-88397000D01*
X98595000Y-98547000D02*
X94445000Y-98547000D01*
X98595000Y-88422000D02*
X99970000Y-88422000D01*
%TO.C,U2*%
X106723000Y-101311000D02*
X106723000Y-101361000D01*
X102573000Y-101311000D02*
X102573000Y-101456000D01*
X102573000Y-106461000D02*
X102573000Y-106316000D01*
X106723000Y-106461000D02*
X106723000Y-106316000D01*
X106723000Y-101311000D02*
X102573000Y-101311000D01*
X106723000Y-106461000D02*
X102573000Y-106461000D01*
X106723000Y-101361000D02*
X108123000Y-101361000D01*
%TO.C,F1*%
X85448571Y-117014666D02*
X85448571Y-116681333D01*
X85972380Y-116681333D02*
X84972380Y-116681333D01*
X84972380Y-117157523D01*
X85972380Y-118062285D02*
X85972380Y-117490857D01*
X85972380Y-117776571D02*
X84972380Y-117776571D01*
X85115238Y-117681333D01*
X85210476Y-117586095D01*
X85258095Y-117490857D01*
%TO.C,3V1*%
X69048380Y-100107904D02*
X69048380Y-100726952D01*
X69429333Y-100393619D01*
X69429333Y-100536476D01*
X69476952Y-100631714D01*
X69524571Y-100679333D01*
X69619809Y-100726952D01*
X69857904Y-100726952D01*
X69953142Y-100679333D01*
X70000761Y-100631714D01*
X70048380Y-100536476D01*
X70048380Y-100250761D01*
X70000761Y-100155523D01*
X69953142Y-100107904D01*
X69048380Y-101012666D02*
X70048380Y-101346000D01*
X69048380Y-101679333D01*
X70048380Y-102536476D02*
X70048380Y-101965047D01*
X70048380Y-102250761D02*
X69048380Y-102250761D01*
X69191238Y-102155523D01*
X69286476Y-102060285D01*
X69334095Y-101965047D01*
%TO.C,F1*%
X87455333Y-134978571D02*
X87788666Y-134978571D01*
X87788666Y-135502380D02*
X87788666Y-134502380D01*
X87312476Y-134502380D01*
X86407714Y-135502380D02*
X86979142Y-135502380D01*
X86693428Y-135502380D02*
X86693428Y-134502380D01*
X86788666Y-134645238D01*
X86883904Y-134740476D01*
X86979142Y-134788095D01*
%TO.C,R1*%
X102274666Y-86812380D02*
X102608000Y-86336190D01*
X102846095Y-86812380D02*
X102846095Y-85812380D01*
X102465142Y-85812380D01*
X102369904Y-85860000D01*
X102322285Y-85907619D01*
X102274666Y-86002857D01*
X102274666Y-86145714D01*
X102322285Y-86240952D01*
X102369904Y-86288571D01*
X102465142Y-86336190D01*
X102846095Y-86336190D01*
X101322285Y-86812380D02*
X101893714Y-86812380D01*
X101608000Y-86812380D02*
X101608000Y-85812380D01*
X101703238Y-85955238D01*
X101798476Y-86050476D01*
X101893714Y-86098095D01*
%TO.C,R2*%
X105068666Y-86812380D02*
X105402000Y-86336190D01*
X105640095Y-86812380D02*
X105640095Y-85812380D01*
X105259142Y-85812380D01*
X105163904Y-85860000D01*
X105116285Y-85907619D01*
X105068666Y-86002857D01*
X105068666Y-86145714D01*
X105116285Y-86240952D01*
X105163904Y-86288571D01*
X105259142Y-86336190D01*
X105640095Y-86336190D01*
X104687714Y-85907619D02*
X104640095Y-85860000D01*
X104544857Y-85812380D01*
X104306761Y-85812380D01*
X104211523Y-85860000D01*
X104163904Y-85907619D01*
X104116285Y-86002857D01*
X104116285Y-86098095D01*
X104163904Y-86240952D01*
X104735333Y-86812380D01*
X104116285Y-86812380D01*
%TO.C,R3*%
X94940380Y-111085333D02*
X94464190Y-110752000D01*
X94940380Y-110513904D02*
X93940380Y-110513904D01*
X93940380Y-110894857D01*
X93988000Y-110990095D01*
X94035619Y-111037714D01*
X94130857Y-111085333D01*
X94273714Y-111085333D01*
X94368952Y-111037714D01*
X94416571Y-110990095D01*
X94464190Y-110894857D01*
X94464190Y-110513904D01*
X93940380Y-111418666D02*
X93940380Y-112037714D01*
X94321333Y-111704380D01*
X94321333Y-111847238D01*
X94368952Y-111942476D01*
X94416571Y-111990095D01*
X94511809Y-112037714D01*
X94749904Y-112037714D01*
X94845142Y-111990095D01*
X94892761Y-111942476D01*
X94940380Y-111847238D01*
X94940380Y-111561523D01*
X94892761Y-111466285D01*
X94845142Y-111418666D01*
%TO.C,R4*%
X94354380Y-107529333D02*
X93878190Y-107196000D01*
X94354380Y-106957904D02*
X93354380Y-106957904D01*
X93354380Y-107338857D01*
X93402000Y-107434095D01*
X93449619Y-107481714D01*
X93544857Y-107529333D01*
X93687714Y-107529333D01*
X93782952Y-107481714D01*
X93830571Y-107434095D01*
X93878190Y-107338857D01*
X93878190Y-106957904D01*
X93687714Y-108386476D02*
X94354380Y-108386476D01*
X93306761Y-108148380D02*
X94021047Y-107910285D01*
X94021047Y-108529333D01*
%TO.C,R5*%
X84858380Y-89495333D02*
X84382190Y-89162000D01*
X84858380Y-88923904D02*
X83858380Y-88923904D01*
X83858380Y-89304857D01*
X83906000Y-89400095D01*
X83953619Y-89447714D01*
X84048857Y-89495333D01*
X84191714Y-89495333D01*
X84286952Y-89447714D01*
X84334571Y-89400095D01*
X84382190Y-89304857D01*
X84382190Y-88923904D01*
X83858380Y-90400095D02*
X83858380Y-89923904D01*
X84334571Y-89876285D01*
X84286952Y-89923904D01*
X84239333Y-90019142D01*
X84239333Y-90257238D01*
X84286952Y-90352476D01*
X84334571Y-90400095D01*
X84429809Y-90447714D01*
X84667904Y-90447714D01*
X84763142Y-90400095D01*
X84810761Y-90352476D01*
X84858380Y-90257238D01*
X84858380Y-90019142D01*
X84810761Y-89923904D01*
X84763142Y-89876285D01*
%TO.C,SW1*%
X90320761Y-131254666D02*
X90368380Y-131397523D01*
X90368380Y-131635619D01*
X90320761Y-131730857D01*
X90273142Y-131778476D01*
X90177904Y-131826095D01*
X90082666Y-131826095D01*
X89987428Y-131778476D01*
X89939809Y-131730857D01*
X89892190Y-131635619D01*
X89844571Y-131445142D01*
X89796952Y-131349904D01*
X89749333Y-131302285D01*
X89654095Y-131254666D01*
X89558857Y-131254666D01*
X89463619Y-131302285D01*
X89416000Y-131349904D01*
X89368380Y-131445142D01*
X89368380Y-131683238D01*
X89416000Y-131826095D01*
X89368380Y-132159428D02*
X90368380Y-132397523D01*
X89654095Y-132588000D01*
X90368380Y-132778476D01*
X89368380Y-133016571D01*
X90368380Y-133921333D02*
X90368380Y-133349904D01*
X90368380Y-133635619D02*
X89368380Y-133635619D01*
X89511238Y-133540380D01*
X89606476Y-133445142D01*
X89654095Y-133349904D01*
%TO.C,U1*%
X97281904Y-86924380D02*
X97281904Y-87733904D01*
X97234285Y-87829142D01*
X97186666Y-87876761D01*
X97091428Y-87924380D01*
X96900952Y-87924380D01*
X96805714Y-87876761D01*
X96758095Y-87829142D01*
X96710476Y-87733904D01*
X96710476Y-86924380D01*
X95710476Y-87924380D02*
X96281904Y-87924380D01*
X95996190Y-87924380D02*
X95996190Y-86924380D01*
X96091428Y-87067238D01*
X96186666Y-87162476D01*
X96281904Y-87210095D01*
%TO.C,U2*%
X105409904Y-99838380D02*
X105409904Y-100647904D01*
X105362285Y-100743142D01*
X105314666Y-100790761D01*
X105219428Y-100838380D01*
X105028952Y-100838380D01*
X104933714Y-100790761D01*
X104886095Y-100743142D01*
X104838476Y-100647904D01*
X104838476Y-99838380D01*
X104409904Y-99933619D02*
X104362285Y-99886000D01*
X104267047Y-99838380D01*
X104028952Y-99838380D01*
X103933714Y-99886000D01*
X103886095Y-99933619D01*
X103838476Y-100028857D01*
X103838476Y-100124095D01*
X103886095Y-100266952D01*
X104457523Y-100838380D01*
X103838476Y-100838380D01*
%TD*%
M02*
